<svg width="768" height="240" viewBox="0 0 768 240" fill="none" xmlns="http://www.w3.org/2000/svg">
<path d="M768 -5H0V244H768V-5Z" fill="#FFF3E9"/>
<g opacity="0.5">
<path d="M-6.54953 164.395L-2.18918 161.56C3.35504 158.025 6.3064 152.122 6.3064 144.936V144.819C6.3064 130.904 -4.19012 122.059 -20.9395 122.059C-38.5142 122.059 -49.2441 132.205 -49.2441 148.713V150.013H-30.7273V148.246C-30.7273 142.109 -27.0673 138.224 -20.9395 138.224C-15.9872 138.224 -12.4439 141.409 -12.4439 145.886V146.003C-12.4439 149.421 -14.0947 151.781 -18.3383 154.257L-22.6986 156.85C-29.5351 160.86 -31.4276 164.636 -31.4276 174.299V179.135H-12.5606V176.425C-12.5606 169.697 -11.5018 167.571 -6.54953 164.395Z" fill="white"/>
<path d="M60.123 186.446H38.5381V206.38H60.123V186.446Z" fill="white"/>
<path d="M311.063 90.0186H289.479V109.953H311.063V90.0186Z" fill="white"/>
<path d="M738.627 90.0186H717.042V109.953H738.627V90.0186Z" fill="white"/>
<path d="M667.369 90.0186H645.784V109.953H667.369V90.0186Z" fill="white"/>
<path d="M596.103 90.0186H574.518V109.953H596.103V90.0186Z" fill="white"/>
<path d="M26.0244 90.0186H4.43945V109.953H26.0244V90.0186Z" fill="white"/>
<path d="M239.806 90.0186H218.221V109.953H239.806V90.0186Z" fill="white"/>
<path d="M168.548 90.0186H146.963V109.953H168.548V90.0186Z" fill="white"/>
<path d="M97.2812 90.0186H75.6963V109.953H97.2812V90.0186Z" fill="white"/>
<path d="M382.329 90.0186H360.744V109.953H382.329V90.0186Z" fill="white"/>
<path d="M453.587 90.0186H432.002V109.953H453.587V90.0186Z" fill="white"/>
<path d="M524.845 90.0186H503.26V109.953H524.845V90.0186Z" fill="white"/>
<path d="M64.7171 164.395L69.0774 161.56C74.6216 158.025 77.573 152.122 77.573 144.936V144.819C77.573 130.904 67.0765 122.059 50.3271 122.059C32.7524 122.059 22.0225 132.205 22.0225 148.713V150.013H40.5393V148.246C40.5393 142.109 44.1993 138.224 50.3271 138.224C55.2794 138.224 58.8227 141.409 58.8227 145.886V146.003C58.8227 149.421 57.172 151.781 52.9283 154.257L48.568 156.85C41.7315 160.86 39.839 164.636 39.839 174.299V179.135H58.706V176.425C58.706 169.697 59.7648 167.571 64.7171 164.395Z" fill="white"/>
<path d="M349.756 164.395L354.116 161.56C359.661 158.025 362.612 152.122 362.612 144.936V144.819C362.612 130.904 352.116 122.059 335.366 122.059C317.791 122.059 307.062 132.205 307.062 148.713V150.013H325.578V148.246C325.578 142.109 329.238 138.224 335.366 138.224C340.318 138.224 343.862 141.409 343.862 145.886V146.003C343.862 149.421 342.211 151.781 337.967 154.257L333.607 156.85C326.771 160.86 324.878 164.636 324.878 174.299V179.135H343.745V176.425C343.745 169.697 344.804 167.571 349.756 164.395Z" fill="white"/>
<path d="M777.32 164.395L781.68 161.56C787.224 158.025 790.176 152.122 790.176 144.936V144.819C790.176 130.904 779.679 122.059 762.93 122.059C745.355 122.059 734.625 132.205 734.625 148.713V150.013H753.142V148.246C753.142 142.109 756.802 138.224 762.93 138.224C767.882 138.224 771.425 141.409 771.425 145.886V146.003C771.425 149.421 769.774 151.781 765.531 154.257L761.171 156.85C754.334 160.86 752.442 164.636 752.442 174.299V179.135H771.309V176.425C771.309 169.697 772.367 167.571 777.32 164.395Z" fill="white"/>
<path d="M634.795 164.395L639.155 161.56C644.7 158.025 647.651 152.122 647.651 144.936V144.819C647.651 130.904 637.155 122.059 620.405 122.059C602.83 122.059 592.101 132.205 592.101 148.713V150.013H610.617V148.246C610.617 142.109 614.277 138.224 620.405 138.224C625.357 138.224 628.901 141.409 628.901 145.886V146.003C628.901 149.421 627.25 151.781 623.006 154.257L618.646 156.85C611.81 160.86 609.917 164.636 609.917 174.299V179.135H628.784V176.425C628.784 169.697 629.843 167.571 634.795 164.395Z" fill="white"/>
<path d="M701.459 186.446H679.874V206.38H701.459V186.446Z" fill="white"/>
<path d="M706.053 164.395L710.413 161.56C715.958 158.025 718.909 152.122 718.909 144.936V144.819C718.909 130.904 708.412 122.059 691.663 122.059C674.088 122.059 663.358 132.205 663.358 148.713V150.013H681.875V148.246C681.875 142.109 685.535 138.224 691.663 138.224C696.615 138.224 700.159 141.409 700.159 145.886V146.003C700.159 149.421 698.508 151.781 694.264 154.257L689.904 156.85C683.067 160.86 681.175 164.636 681.175 174.299V179.135H700.042V176.425C700.042 169.697 701.101 167.571 706.053 164.395Z" fill="white"/>
<path d="M772.717 186.446H751.132V206.38H772.717V186.446Z" fill="white"/>
<path d="M278.498 164.395L282.859 161.56C288.403 158.025 291.354 152.122 291.354 144.936V144.819C291.354 130.904 280.858 122.059 264.108 122.059C246.534 122.059 235.804 132.205 235.804 148.713V150.013H254.321V148.246C254.321 142.109 257.981 138.224 264.108 138.224C269.061 138.224 272.604 141.409 272.604 145.886V146.003C272.604 149.421 270.953 151.781 266.71 154.257L262.349 156.85C255.513 160.86 253.62 164.636 253.62 174.299V179.135H272.487V176.425C272.479 169.697 273.538 167.571 278.498 164.395Z" fill="white"/>
<path d="M131.381 186.446H109.796V206.38H131.381V186.446Z" fill="white"/>
<path d="M273.896 186.446H252.312V206.38H273.896V186.446Z" fill="white"/>
<path d="M630.201 186.446H608.616V206.38H630.201V186.446Z" fill="white"/>
<path d="M207.232 164.395L211.592 161.56C217.136 158.025 220.088 152.122 220.088 144.936V144.819C220.088 130.904 209.591 122.059 192.842 122.059C175.267 122.059 164.537 132.205 164.537 148.713V150.013H183.054V148.246C183.054 142.109 186.714 138.224 192.842 138.224C197.794 138.224 201.337 141.409 201.337 145.886V146.003C201.337 149.421 199.687 151.781 195.443 154.257L191.083 156.85C184.246 160.86 182.354 164.636 182.354 174.299V179.135H201.221V176.425C201.221 169.697 202.279 167.571 207.232 164.395Z" fill="white"/>
<path d="M135.975 164.395L140.335 161.56C145.879 158.025 148.831 152.122 148.831 144.936V144.819C148.831 130.904 138.334 122.059 121.585 122.059C104.01 122.059 93.2803 132.205 93.2803 148.713V150.013H111.797V148.246C111.797 142.109 115.457 138.224 121.585 138.224C126.537 138.224 130.081 141.409 130.081 145.886V146.003C130.081 149.421 128.43 151.781 124.186 154.257L119.826 156.85C112.989 160.86 111.097 164.636 111.097 174.299V179.135H129.964V176.425C129.964 169.697 131.023 167.571 135.975 164.395Z" fill="white"/>
<path d="M202.639 186.446H181.054V206.38H202.639V186.446Z" fill="white"/>
<path d="M345.162 186.446H323.577V206.38H345.162V186.446Z" fill="white"/>
<path d="M416.42 186.446H394.835V206.38H416.42V186.446Z" fill="white"/>
<path d="M563.537 164.395L567.898 161.56C573.442 158.025 576.393 152.122 576.393 144.936V144.819C576.393 130.904 565.897 122.059 549.147 122.059C531.573 122.059 520.843 132.205 520.843 148.713V150.013H539.36V148.246C539.36 142.109 543.02 138.224 549.147 138.224C554.1 138.224 557.643 141.409 557.643 145.886V146.003C557.643 149.421 555.992 151.781 551.749 154.257L547.388 156.85C540.552 160.86 538.659 164.636 538.659 174.299V179.135H557.526V176.425C557.526 169.697 558.585 167.571 563.537 164.395Z" fill="white"/>
<path d="M492.272 164.395L496.632 161.56C502.176 158.025 505.128 152.122 505.128 144.936V144.819C505.128 130.904 494.631 122.059 477.882 122.059C460.307 122.059 449.577 132.205 449.577 148.713V150.013H468.094V148.246C468.094 142.109 471.754 138.224 477.882 138.224C482.834 138.224 486.377 141.409 486.377 145.886V146.003C486.377 149.421 484.727 151.781 480.483 154.257L476.123 156.85C469.286 160.86 467.394 164.636 467.394 174.299V179.135H486.261V176.425C486.261 169.697 487.32 167.571 492.272 164.395Z" fill="white"/>
<path d="M558.944 186.446H537.359V206.38H558.944V186.446Z" fill="white"/>
<path d="M487.678 186.446H466.093V206.38H487.678V186.446Z" fill="white"/>
<path d="M421.014 164.395L425.374 161.56C430.919 158.025 433.87 152.122 433.87 144.936V144.819C433.87 130.904 423.373 122.059 406.624 122.059C389.049 122.059 378.319 132.205 378.319 148.713V150.013H396.836V148.246C396.836 142.109 400.496 138.224 406.624 138.224C411.576 138.224 415.12 141.409 415.12 145.886V146.003C415.12 149.421 413.469 151.781 409.225 154.257L404.865 156.85C398.028 160.86 396.136 164.636 396.136 174.299V179.135H415.003V176.425C415.003 169.697 416.062 167.571 421.014 164.395Z" fill="white"/>
<path d="M114.74 239.829C114.74 225.914 104.243 217.068 87.4941 217.068C69.9194 217.068 59.1895 227.215 59.1895 243.722V244.473H77.7063V243.247C77.7063 237.111 81.3663 233.226 87.4941 233.226C92.4464 233.226 95.9897 236.411 95.9897 240.888V241.004C95.9897 242.288 95.7562 243.422 95.2393 244.473H114.306C114.59 243.03 114.74 241.521 114.74 239.946V239.829Z" fill="white"/>
<path d="M43.4734 239.829C43.4734 225.914 32.9769 217.068 16.2275 217.068C-1.34721 217.068 -12.0771 227.215 -12.0771 243.722V244.473H6.43969V243.247C6.43969 237.111 10.0997 233.226 16.2275 233.226C21.1798 233.226 24.7231 236.411 24.7231 240.888V241.004C24.7231 242.288 24.4897 243.422 23.9727 244.473H43.0399C43.3233 243.03 43.4734 241.521 43.4734 239.946V239.829Z" fill="white"/>
<path d="M185.998 239.829C185.998 225.914 175.501 217.068 158.752 217.068C141.177 217.068 130.447 227.215 130.447 243.722V244.473H148.964V243.247C148.964 237.111 152.624 233.226 158.752 233.226C163.704 233.226 167.248 236.411 167.248 240.888V241.004C167.248 242.288 167.014 243.422 166.497 244.473H185.564C185.848 243.03 185.998 241.521 185.998 239.946V239.829Z" fill="white"/>
<path d="M756.076 239.829C756.076 225.914 745.579 217.068 728.83 217.068C711.255 217.068 700.525 227.215 700.525 243.722V244.473H719.042V243.247C719.042 237.111 722.702 233.226 728.83 233.226C733.782 233.226 737.326 236.411 737.326 240.888V241.004C737.326 242.288 737.092 243.422 736.575 244.473H755.642C755.926 243.03 756.076 241.521 756.076 239.946V239.829Z" fill="white"/>
<path d="M399.779 239.829C399.779 225.914 389.283 217.068 372.533 217.068C354.958 217.068 344.229 227.215 344.229 243.722V244.473H362.745V243.247C362.745 237.111 366.405 233.226 372.533 233.226C377.485 233.226 381.029 236.411 381.029 240.888V241.004C381.029 242.288 380.795 243.422 380.278 244.473H399.346C399.629 243.03 399.779 241.521 399.779 239.946V239.829Z" fill="white"/>
<path d="M684.818 239.829C684.818 225.914 674.322 217.068 657.572 217.068C639.997 217.068 629.268 227.215 629.268 243.722V244.473H647.784V243.247C647.784 237.111 651.444 233.226 657.572 233.226C662.524 233.226 666.068 236.411 666.068 240.888V241.004C666.068 242.288 665.834 243.422 665.317 244.473H684.385C684.668 243.03 684.818 241.521 684.818 239.946V239.829Z" fill="white"/>
<path d="M257.256 239.829C257.256 225.914 246.759 217.068 230.01 217.068C212.435 217.068 201.705 227.215 201.705 243.722V244.473H220.222V243.247C220.222 237.111 223.882 233.226 230.01 233.226C234.962 233.226 238.505 236.411 238.505 240.888V241.004C238.505 242.288 238.272 243.422 237.755 244.473H256.822C257.106 243.03 257.256 241.521 257.256 239.946V239.829Z" fill="white"/>
<path d="M328.512 239.829C328.512 225.914 318.016 217.068 301.267 217.068C283.692 217.068 272.962 227.215 272.962 243.722V244.473H291.479V243.247C291.479 237.111 295.139 233.226 301.267 233.226C306.219 233.226 309.762 236.411 309.762 240.888V241.004C309.762 242.288 309.529 243.422 309.012 244.473H328.079C328.362 243.03 328.512 241.521 328.512 239.946V239.829Z" fill="white"/>
<path d="M471.037 239.829C471.037 225.914 460.54 217.068 443.791 217.068C426.216 217.068 415.486 227.215 415.486 243.722V244.473H434.003V243.247C434.003 237.111 437.663 233.226 443.791 233.226C448.743 233.226 452.287 236.411 452.287 240.888V241.004C452.287 242.288 452.053 243.422 451.536 244.473H470.603C470.887 243.03 471.037 241.521 471.037 239.946V239.829Z" fill="white"/>
<path d="M542.295 239.829C542.295 225.914 531.798 217.068 515.049 217.068C497.474 217.068 486.744 227.215 486.744 243.722V244.473H505.261V243.247C505.261 237.111 508.921 233.226 515.049 233.226C520.001 233.226 523.544 236.411 523.544 240.888V241.004C523.544 242.288 523.311 243.422 522.794 244.473H541.861C542.145 243.03 542.295 241.521 542.295 239.946V239.829Z" fill="white"/>
<path d="M613.561 239.829C613.561 225.914 603.065 217.068 586.315 217.068C568.741 217.068 558.011 227.215 558.011 243.722V244.473H576.528V243.247C576.528 237.111 580.188 233.226 586.315 233.226C591.268 233.226 594.811 236.411 594.811 240.888V241.004C594.811 242.288 594.578 243.422 594.061 244.473H613.128C613.411 243.03 613.561 241.521 613.561 239.946V239.829Z" fill="white"/>
<path d="M230.01 25.6221C212.435 25.6221 201.705 35.7684 201.705 52.276V53.5766H220.222V51.8091C220.222 45.673 223.882 41.7878 230.01 41.7878C234.962 41.7878 238.505 44.9726 238.505 49.4497V49.5664C238.505 52.9846 236.855 55.3441 232.611 57.8202L228.251 60.4131C221.414 64.4232 219.522 68.2 219.522 77.8627V82.6983H238.389V79.9887C238.389 73.269 239.447 71.143 244.4 67.9582L248.76 65.1236C254.304 61.5886 257.256 55.6859 257.256 48.4993V48.3825C257.256 34.4678 246.759 25.6221 230.01 25.6221Z" fill="white"/>
<path d="M657.572 25.6221C639.997 25.6221 629.268 35.7684 629.268 52.276V53.5766H647.784V51.8091C647.784 45.673 651.444 41.7878 657.572 41.7878C662.524 41.7878 666.068 44.9726 666.068 49.4497V49.5664C666.068 52.9846 664.417 55.3441 660.173 57.8202L655.813 60.4131C648.977 64.4232 647.084 68.2 647.084 77.8627V82.6983H665.951V79.9887C665.951 73.269 667.01 71.143 671.962 67.9582L676.322 65.1236C681.867 61.5886 684.818 55.6859 684.818 48.4993V48.3825C684.818 34.4678 674.322 25.6221 657.572 25.6221Z" fill="white"/>
<path d="M701.459 -5H679.874V14.9342H701.459V-5Z" fill="white"/>
<path d="M630.201 -5H608.616V14.9342H630.201V-5Z" fill="white"/>
<path d="M558.944 -5H537.359V14.9342H558.944V-5Z" fill="white"/>
<path d="M586.315 25.6221C568.741 25.6221 558.011 35.7684 558.011 52.276V53.5766H576.528V51.8091C576.528 45.673 580.188 41.7878 586.315 41.7878C591.268 41.7878 594.811 44.9726 594.811 49.4497V49.5664C594.811 52.9846 593.16 55.3441 588.917 57.8202L584.556 60.4131C577.72 64.4232 575.827 68.2 575.827 77.8627V82.6983H594.694V79.9887C594.694 73.269 595.753 71.143 600.705 67.9582L605.066 65.1236C610.61 61.5886 613.561 55.6859 613.561 48.4993V48.3825C613.561 34.4678 603.065 25.6221 586.315 25.6221Z" fill="white"/>
<path d="M515.057 25.6221C497.482 25.6221 486.752 35.7684 486.752 52.276V53.5766H505.269V51.8091C505.269 45.673 508.929 41.7878 515.057 41.7878C520.009 41.7878 523.552 44.9726 523.552 49.4497V49.5664C523.552 52.9846 521.901 55.3441 517.658 57.8202L513.298 60.4131C506.461 64.4232 504.568 68.2 504.568 77.8627V82.6983H523.435V79.9887C523.435 73.269 524.494 71.143 529.447 67.9582L533.807 65.1236C539.351 61.5886 542.302 55.6859 542.302 48.4993V48.3825C542.294 34.4678 531.798 25.6221 515.057 25.6221Z" fill="white"/>
<path d="M487.678 -5H466.093V14.9342H487.678V-5Z" fill="white"/>
<path d="M728.83 25.6221C711.255 25.6221 700.525 35.7684 700.525 52.276V53.5766H719.042V51.8091C719.042 45.673 722.702 41.7878 728.83 41.7878C733.782 41.7878 737.326 44.9726 737.326 49.4497V49.5664C737.326 52.9846 735.675 55.3441 731.431 57.8202L727.071 60.4131C720.234 64.4232 718.342 68.2 718.342 77.8627V82.6983H737.209V79.9887C737.209 73.269 738.268 71.143 743.22 67.9582L747.58 65.1236C753.125 61.5886 756.076 55.6859 756.076 48.4993V48.3825C756.076 34.4678 745.579 25.6221 728.83 25.6221Z" fill="white"/>
<path d="M772.717 -5H751.132V14.9342H772.717V-5Z" fill="white"/>
<path d="M131.381 -5H109.796V14.9342H131.381V-5Z" fill="white"/>
<path d="M158.752 25.6221C141.177 25.6221 130.447 35.7684 130.447 52.276V53.5766H148.964V51.8091C148.964 45.673 152.624 41.7878 158.752 41.7878C163.704 41.7878 167.248 44.9726 167.248 49.4497V49.5664C167.248 52.9846 165.597 55.3441 161.353 57.8202L156.993 60.4131C150.156 64.4232 148.264 68.2 148.264 77.8627V82.6983H167.131V79.9887C167.131 73.269 168.19 71.143 173.142 67.9582L177.502 65.1236C183.046 61.5886 185.998 55.6859 185.998 48.4993V48.3825C185.998 34.4678 175.501 25.6221 158.752 25.6221Z" fill="white"/>
<path d="M87.4941 25.6221C69.9194 25.6221 59.1895 35.7684 59.1895 52.276V53.5766H77.7063V51.8091C77.7063 45.673 81.3663 41.7878 87.4941 41.7878C92.4464 41.7878 95.9897 44.9726 95.9897 49.4497V49.5664C95.9897 52.9846 94.3389 55.3441 90.0953 57.8202L85.735 60.4131C78.8985 64.4232 77.006 68.2 77.006 77.8627V82.6983H95.873V79.9887C95.873 73.269 96.9318 71.143 101.884 67.9582L106.244 65.1236C111.789 61.5886 114.74 55.6859 114.74 48.4993V48.3825C114.74 34.4678 104.243 25.6221 87.4941 25.6221Z" fill="white"/>
<path d="M202.639 -5H181.054V14.9342H202.639V-5Z" fill="white"/>
<path d="M60.123 -5H38.5381V14.9342H60.123V-5Z" fill="white"/>
<path d="M16.2363 25.6221C-1.33844 25.6221 -12.0684 35.7684 -12.0684 52.276V53.5766H6.44848V51.8091C6.44848 45.673 10.1085 41.7878 16.2363 41.7878C21.1886 41.7878 24.7319 44.9726 24.7319 49.4497V49.5664C24.7319 52.9846 23.0811 55.3441 18.8375 57.8202L14.4772 60.4131C7.6407 64.4232 5.74816 68.2 5.74816 77.8627V82.6983H24.6152V79.9887C24.6152 73.269 25.674 71.143 30.6263 67.9582L34.9866 65.1236C40.5308 61.5886 43.4822 55.6859 43.4822 48.4993V48.3825C43.4822 34.4678 32.9773 25.6221 16.2363 25.6221Z" fill="white"/>
<path d="M345.162 -5H323.577V14.9342H345.162V-5Z" fill="white"/>
<path d="M443.791 25.6221C426.216 25.6221 415.486 35.7684 415.486 52.276V53.5766H434.003V51.8091C434.003 45.673 437.663 41.7878 443.791 41.7878C448.743 41.7878 452.287 44.9726 452.287 49.4497V49.5664C452.287 52.9846 450.636 55.3441 446.392 57.8202L442.032 60.4131C435.195 64.4232 433.303 68.2 433.303 77.8627V82.6983H452.17V79.9887C452.17 73.269 453.229 71.143 458.181 67.9582L462.541 65.1236C468.086 61.5886 471.037 55.6859 471.037 48.4993V48.3825C471.037 34.4678 460.54 25.6221 443.791 25.6221Z" fill="white"/>
<path d="M372.533 25.6221C354.958 25.6221 344.229 35.7684 344.229 52.276V53.5766H362.745V51.8091C362.745 45.673 366.405 41.7878 372.533 41.7878C377.485 41.7878 381.029 44.9726 381.029 49.4497V49.5664C381.029 52.9846 379.378 55.3441 375.134 57.8202L370.774 60.4131C363.938 64.4232 362.045 68.2 362.045 77.8627V82.6983H380.912V79.9887C380.912 73.269 381.971 71.143 386.923 67.9582L391.283 65.1236C396.828 61.5886 399.779 55.6859 399.779 48.4993V48.3825C399.779 34.4678 389.283 25.6221 372.533 25.6221Z" fill="white"/>
<path d="M416.42 -5H394.835V14.9342H416.42V-5Z" fill="white"/>
<path d="M273.896 -5H252.312V14.9342H273.896V-5Z" fill="white"/>
<path d="M301.275 25.6221C283.701 25.6221 272.971 35.7684 272.971 52.276V53.5766H291.488V51.8091C291.488 45.673 295.148 41.7878 301.275 41.7878C306.228 41.7878 309.771 44.9726 309.771 49.4497V49.5664C309.771 52.9846 308.12 55.3441 303.877 57.8202L299.516 60.4131C292.68 64.4232 290.787 68.2 290.787 77.8627V82.6983H309.654V79.9887C309.654 73.269 310.713 71.143 315.665 67.9582L320.026 65.1236C325.57 61.5886 328.521 55.6859 328.521 48.4993V48.3825C328.513 34.4678 318.016 25.6221 301.275 25.6221Z" fill="white"/>
</g>
<path d="M248.536 117.49V84.0098H269.58V91.1858H256.329V97.7401H268.862V104.674H256.329V117.49H248.536Z" fill="#FF2B00"/>
<path d="M307.219 100.752C307.219 103.239 306.835 105.533 306.072 107.59C304.015 113.281 299.376 117.157 293.014 118.112V119.451H301.716V125.622H294.636C289.901 125.622 287.415 123.661 287.415 118.83V118.208C280.577 117.541 275.503 113.665 273.351 107.59C272.633 105.533 272.249 103.239 272.249 100.752C272.249 98.266 272.633 95.9715 273.351 93.9147C275.741 87.2643 281.72 83.1553 289.709 83.1553C297.699 83.1553 303.723 87.2689 306.068 93.9147C306.84 95.9669 307.219 98.266 307.219 100.752ZM299.042 100.752C299.042 99.1253 298.805 97.6444 298.325 96.3052C296.986 92.6715 293.974 90.3267 289.714 90.3267C285.454 90.3267 282.442 92.6715 281.153 96.3052C280.627 97.6444 280.435 99.1253 280.435 100.752C280.435 102.38 280.627 103.815 281.153 105.2C282.446 108.833 285.504 111.132 289.714 111.132C293.923 111.132 296.986 108.934 298.325 105.2C298.805 103.815 299.042 102.38 299.042 100.752Z" fill="#FF2B00"/>
<path d="M333.144 117.49L330.324 108.02H319.084L316.264 117.49H307.991L318.609 84.0098H330.804L341.421 117.49H333.144ZM321.137 101.04H328.262L325.538 91.9536L325.154 88.2697H324.199L323.865 91.9536L321.137 101.04Z" fill="#FF2B00"/>
<path d="M428.187 85.4452V83.85C428.187 80.6596 428.808 79.4164 431.066 78.0955L432.506 77.2408C433.905 76.4226 434.449 75.6456 434.449 74.5166V74.4801C434.449 73.0037 433.283 71.9525 431.647 71.9525C429.627 71.9525 428.42 73.2368 428.42 75.2571V75.8421H422.313V75.4125C422.313 69.9688 425.851 66.623 431.647 66.623C437.442 66.623 440.628 69.5391 440.628 74.1281V74.1647C440.628 76.5369 439.655 78.4794 437.826 79.6495L436.387 80.5819C434.755 81.6332 434.403 82.3325 434.403 84.5493V85.4452H428.187ZM427.762 94.4266V87.8539H434.878V94.4266H427.762Z" fill="#D9D8D6"/>
<path d="M550.188 113.239V111.644C550.188 108.454 550.809 107.21 553.067 105.889L554.507 105.035C555.906 104.217 556.45 103.44 556.45 102.311V102.274C556.45 100.798 555.284 99.7464 553.648 99.7464C551.628 99.7464 550.421 101.031 550.421 103.051V103.636H544.314V103.206C544.314 97.7627 547.852 94.417 553.648 94.417C559.443 94.417 562.629 97.3331 562.629 101.922V101.959C562.629 104.331 561.656 106.273 559.827 107.443L558.388 108.376C556.756 109.427 556.404 110.126 556.404 112.343V113.239H550.188ZM549.758 122.225V115.652H556.875V122.225H549.758Z" fill="#D9D8D6"/>
<path d="M631.144 88.5163V87.2867C631.144 84.8231 631.624 83.8633 633.366 82.844L634.476 82.1813C635.56 81.5505 635.98 80.9518 635.98 80.0788V80.0468C635.98 78.9041 635.08 78.0951 633.818 78.0951C632.255 78.0951 631.327 79.0869 631.327 80.6455V81.098H626.61V80.7689C626.61 76.5639 629.344 73.9814 633.818 73.9814C638.293 73.9814 640.757 76.2348 640.757 79.7771V79.8091C640.757 81.6419 640.007 83.1411 638.595 84.0415L637.484 84.7637C636.222 85.5727 635.953 86.1166 635.953 87.8261V88.5163H631.144ZM630.811 95.4546V90.3811H636.305V95.4546H630.811Z" fill="#D9D8D6"/>
<path d="M405.457 140.224V137.578C405.457 132.289 406.49 130.228 410.229 128.034L412.615 126.617C414.937 125.264 415.837 123.971 415.837 122.101V122.037C415.837 119.587 413.904 117.846 411.193 117.846C407.838 117.846 405.841 119.976 405.841 123.326V124.295H395.717V123.587C395.717 114.56 401.586 109.011 411.193 109.011C420.801 109.011 426.089 113.847 426.089 121.457V121.521C426.089 125.456 424.476 128.678 421.445 130.612L419.059 132.161C416.349 133.903 415.768 135.064 415.768 138.739V140.224H405.457ZM404.748 155.124V144.223H416.55V155.124H404.748Z" fill="#D9D8D6"/>
<path d="M706.817 140.215V137.98C706.817 133.51 707.69 131.768 710.848 129.913L712.864 128.715C714.825 127.573 715.588 126.48 715.588 124.899V124.844C715.588 122.773 713.952 121.302 711.666 121.302C708.832 121.302 707.141 123.098 707.141 125.932V126.75H698.585V126.151C698.585 118.523 703.544 113.833 711.666 113.833C719.788 113.833 724.254 117.919 724.254 124.35V124.405C724.254 127.728 722.892 130.457 720.328 132.088L718.312 133.396C716.022 134.867 715.533 135.85 715.533 138.954V140.206H706.817V140.215ZM706.218 152.803V143.593H716.191V152.803H706.218Z" fill="#D9D8D6"/>
<path d="M720.205 84.4022V82.743C720.205 79.4247 720.854 78.1266 723.199 76.7508L724.698 75.8596C726.156 75.0094 726.723 74.2004 726.723 73.0257V72.9846C726.723 71.4443 725.507 70.3519 723.806 70.3519C721.699 70.3519 720.447 71.6865 720.447 73.7936V74.4015H714.094V73.9581C714.094 68.2905 717.778 64.8076 723.811 64.8076C729.844 64.8076 733.163 67.8426 733.163 72.6189V72.6601C733.163 75.1282 732.153 77.1531 730.247 78.3689L728.747 79.3379C727.047 80.4302 726.681 81.1616 726.681 83.4652V84.3976H720.205V84.4022ZM719.757 93.7584V86.9161H727.166V93.7584H719.757Z" fill="#D9D8D6"/>
<path d="M460.402 117.056V115.168C460.402 111.397 461.137 109.925 463.807 108.357L465.507 107.347C467.162 106.383 467.806 105.46 467.806 104.13V104.084C467.806 102.338 466.426 101.095 464.492 101.095C462.102 101.095 460.676 102.612 460.676 105.003V105.693H453.454V105.185C453.454 98.7453 457.641 94.7871 464.497 94.7871C471.353 94.7871 475.124 98.238 475.124 103.663V103.709C475.124 106.516 473.972 108.815 471.81 110.195L470.11 111.301C468.176 112.544 467.765 113.372 467.765 115.995V117.056H460.402ZM459.894 127.682V119.908H468.313V127.682H459.894Z" fill="#D9D8D6"/>
<path d="M608.656 77.6747V75.787C608.656 72.0162 609.392 70.5444 612.062 68.9766L613.762 67.9665C615.416 67.0021 616.061 66.0788 616.061 64.7487V64.703C616.061 62.957 614.681 61.7138 612.747 61.7138C610.357 61.7138 608.931 63.2313 608.931 65.6218V66.3119H601.709V65.8046C601.709 59.3645 605.896 55.4062 612.752 55.4062C619.608 55.4062 623.379 58.8571 623.379 64.2825V64.3282C623.379 67.1347 622.227 69.4337 620.065 70.8141L618.365 71.9202C616.431 73.1634 616.02 73.9907 616.02 76.6143V77.6747H608.656ZM608.149 88.3015V80.5268H616.568V88.3015H608.149Z" fill="#D9D8D6"/>
<path d="M200.004 177.651L194.282 53.2048L411.839 45.6504L406.572 182.754L200.004 177.651Z" fill="#D9D8D6"/>
<path d="M239.169 174.268L225.609 209.044L277.462 175.832L239.169 174.268Z" fill="#D9D8D6"/>
<path d="M215.164 160.329L209.442 35.8757L426.999 28.3213L421.732 165.425L215.164 160.329Z" fill="#0080E8"/>
<path d="M215.693 127.236L176.126 116.098L215.693 92.4961V127.236Z" fill="#0080E8"/>
<path d="M244.778 128.279V71.9492H280.189V84.0183H257.898V95.0444H278.982V106.711H257.898V128.279H244.778Z" fill="white"/>
<path d="M324.278 128.279L319.532 112.343H300.624L295.878 128.279H281.954L299.819 71.9492H320.337L338.202 128.279H324.278ZM304.081 100.595H316.068L311.479 85.3072L310.838 79.1087H309.229L308.663 85.3072L304.081 100.595Z" fill="white"/>
<path d="M398.719 100.118C398.719 104.304 398.078 108.164 396.789 111.628C393.333 121.201 385.525 127.72 374.819 129.329V131.579H389.466V141.957H377.553C369.589 141.957 365.402 138.657 365.402 130.529V129.486C353.892 128.361 345.362 121.842 341.741 111.62C340.534 108.164 339.886 104.297 339.886 100.11C339.886 95.9232 340.526 92.064 341.741 88.5998C345.764 77.4172 355.821 70.4961 369.261 70.4961C382.701 70.4961 392.841 77.4172 396.782 88.5998C398.071 92.064 398.719 95.9306 398.719 100.118ZM384.959 100.118C384.959 97.3834 384.556 94.8876 383.752 92.6302C381.502 86.5137 376.428 82.5726 369.269 82.5726C362.109 82.5726 357.036 86.5137 354.868 92.6302C353.981 94.8802 353.661 97.3759 353.661 100.118C353.661 102.859 353.981 105.266 354.868 107.597C357.043 113.714 362.191 117.573 369.269 117.573C376.346 117.573 381.502 113.87 383.752 107.597C384.556 105.266 384.959 102.852 384.959 100.118Z" fill="white"/>
<path d="M68.485 148.388C68.3915 135.56 78.2412 126.966 97.7667 122.859C105.373 121.257 111.73 122.352 116.658 126.112L114.468 128.99C110.408 125.898 105.045 125.023 98.508 126.399C80.9056 130.105 72.0175 137.497 72.0977 148.362L68.485 148.388Z" fill="#FF2B00"/>
<path d="M135.009 177.002C148.825 195.633 172.831 205.042 196.19 201.777C205.866 200.388 215.649 198.398 224.937 195.626C235.408 192.408 245.638 188.722 254.647 182.712C263.241 176.748 277.377 179.166 283.367 189.069C289.698 198.912 286.653 212.14 276.623 218.184C274.706 219.272 272.616 220.254 270.64 221.122C248.663 230.424 224.864 233.943 201.285 234.698C200.35 234.731 198.133 234.784 197.225 234.751C195.155 234.838 192.15 234.818 190.066 234.784C159.115 234.377 128.258 218.391 111.737 191.907C101.654 175.687 124.612 161.016 135.009 177.002Z" fill="#FCD7AE"/>
<path d="M94.6953 62.847L96.131 62.5799C96.151 62.8937 96.4582 63.0673 96.9056 62.9872C97.2195 62.9271 97.4265 62.7268 97.4131 62.453C97.4065 62.2727 97.313 62.1325 97.0592 62.1258L95.9307 62.0457C95.1761 61.9922 94.7621 61.5849 94.7287 60.9238C94.6886 60.0624 95.4032 59.3145 96.6051 59.0941C97.9407 58.847 98.6685 59.2811 98.7019 60.1559L97.2729 60.423C97.2596 60.0958 97.0191 59.9555 96.6318 60.029C96.318 60.0891 96.1177 60.2827 96.131 60.5098C96.1377 60.7235 96.2913 60.8303 96.5317 60.8504L97.6268 60.9438C98.3347 61.0039 98.8088 61.3512 98.8422 62.0123C98.8822 62.9605 98.1677 63.7418 96.919 63.9755C95.5901 64.2226 94.7421 63.7151 94.6953 62.847Z" fill="white"/>
<path d="M99.6697 61.5382L99.5361 58.6801L100.999 58.4063L101.119 60.9372C101.145 61.5715 101.373 61.8787 101.92 61.7719C102.534 61.6584 102.788 61.2043 102.748 60.5832L102.635 58.0991L104.07 57.832L104.291 62.453L102.855 62.7201L102.822 62.059C102.595 62.5932 102.14 62.9805 101.446 63.1074C100.358 63.3144 99.7298 62.7335 99.6697 61.5382Z" fill="white"/>
<path d="M105.092 57.6391L106.534 57.3653L106.561 58.0398C106.801 57.4722 107.309 57.0982 107.997 56.9647C109.098 56.7577 109.693 57.2852 109.746 58.5406L109.886 61.3987L108.444 61.6658L108.317 59.2885C108.284 58.5139 108.043 58.2 107.456 58.3069C106.881 58.4137 106.601 58.8545 106.628 59.5623L106.748 61.9796L105.305 62.2534L105.092 57.6391Z" fill="white"/>
<path d="M114.261 58.2528C114.234 57.5917 113.84 57.1109 113.126 57.2445C112.458 57.3714 112.057 57.959 112.091 58.6602C112.131 59.3613 112.572 59.802 113.239 59.6752C113.954 59.5416 114.294 58.9273 114.261 58.2528ZM115.383 52.6436L115.75 60.3029L114.315 60.57L114.281 59.9156C114.061 60.4231 113.513 60.8438 112.879 60.964C111.517 61.2177 110.682 60.3229 110.608 58.9273C110.542 57.545 111.336 56.3363 112.658 56.0892C113.32 55.9624 113.86 56.1827 114.121 56.6101L114.108 56.2161H114.094L113.934 52.9107L115.383 52.6436Z" fill="white"/>
<path d="M120.158 57.1512C120.131 56.4901 119.737 56.0093 119.016 56.1428C118.348 56.2697 117.947 56.8573 117.981 57.5585C118.021 58.2596 118.455 58.7004 119.129 58.5735C119.85 58.4399 120.191 57.8189 120.158 57.1512ZM116.505 57.8323C116.438 56.45 117.233 55.2413 118.555 54.9943C119.216 54.8674 119.757 55.0877 120.017 55.5151L119.991 54.854L121.426 54.5869L121.647 59.2079L120.211 59.475L120.178 58.8206C119.957 59.3281 119.41 59.7488 118.775 59.869C117.42 60.1227 116.578 59.2212 116.505 57.8323Z" fill="white"/>
<path d="M125.513 53.8119C125.526 54.0857 125.646 56.0022 125.546 56.6031C125.459 57.0906 125.332 57.4579 124.798 57.5447C124.331 57.6182 123.977 57.3844 123.903 56.897C123.877 56.7233 123.877 56.5431 123.87 56.3628C123.85 55.6816 123.816 54.8202 123.796 54.1257L122.361 54.3928C122.387 55.3611 122.367 56.4295 122.461 57.3577C122.568 58.4662 123.69 59.0472 124.738 58.7801C125.072 58.6933 125.332 58.4729 125.539 58.2125C125.519 61.4044 122.835 64.4695 118.701 65.2374C116.918 65.5713 115.062 65.4444 113.539 64.9169C112.999 64.7232 112.464 64.4962 111.984 64.189C111.182 63.6815 110.488 62.9737 110.007 62.159L108.611 62.4194C108.818 63.0071 109.192 63.5079 109.613 63.9553C111.763 66.2725 115.316 67.2274 118.975 66.5462C121.506 66.0721 123.623 64.8301 125.245 62.8134C126.661 61.0505 126.942 59.0605 127.002 56.8769C127.028 55.8018 126.962 54.6399 126.942 53.5381L125.513 53.8119Z" fill="white"/>
<path d="M140.257 244.427C132.932 167.139 115.356 130.619 115.356 130.619L82.789 126.479C66.5088 154.578 53.2135 207.626 45.3672 244.427H140.257Z" fill="#00BFAA"/>
<path d="M140.478 85.1438C140.478 85.1438 151.509 81.1706 156.197 90.0987C160.885 99.0267 149.339 109.578 138.708 104.963L140.478 85.1438Z" fill="#FCD7AE"/>
<path d="M150.882 94.8393C150.681 94.8393 150.474 94.7726 150.314 94.6256C146.288 91.1466 142.328 94.2584 142.161 94.3919C141.787 94.6924 141.239 94.639 140.939 94.265C140.638 93.8911 140.692 93.3435 141.059 93.043C142.848 91.5739 147.329 89.7443 151.449 93.3035C151.817 93.6173 151.857 94.1716 151.536 94.5322C151.369 94.7392 151.129 94.8393 150.882 94.8393Z" fill="#F0B686"/>
<path d="M143.068 83.5144C145.92 96.7496 148.791 122.679 122.408 134.419C107.45 141.076 88.4048 139.307 75.3032 129.377C60.8459 118.419 54.3018 93.4175 61.6807 76.7232C64.9394 69.351 71.1697 63.5548 78.2681 59.7485C94.8221 50.8805 114.795 50.0258 129.192 63.1074C134.561 67.9821 141.472 76.0888 143.068 83.5144Z" fill="#FCD7AE"/>
<path d="M115.029 114.659C114.582 114.659 114.201 114.318 114.161 113.858C114.121 113.377 114.475 112.956 114.956 112.916L124.645 112.095L117.26 95.5272C117.066 95.0865 117.26 94.5723 117.7 94.3787C118.141 94.185 118.655 94.3787 118.849 94.8194L126.735 112.509C126.849 112.769 126.836 113.063 126.689 113.31C126.548 113.55 126.295 113.711 126.014 113.737L115.103 114.659C115.103 114.659 115.049 114.659 115.029 114.659Z" fill="black"/>
<path d="M113.386 124.756C112.257 124.756 111.002 124.555 109.633 124.061C105.099 122.405 104.144 118.886 104.104 118.739C103.984 118.272 104.264 117.797 104.732 117.677C105.199 117.557 105.673 117.837 105.793 118.305C105.82 118.412 106.595 121.103 110.227 122.425C115.489 124.348 118.668 120.929 118.802 120.782C119.122 120.428 119.676 120.395 120.03 120.716C120.384 121.036 120.418 121.584 120.097 121.944C119.97 122.091 117.533 124.756 113.386 124.756Z" fill="black"/>
<path d="M81.5537 86.0977L73.6206 103.346L67.417 90.5984L81.5537 86.0977Z" fill="black"/>
<path d="M142.855 82.8862C142.855 82.8862 137.88 75.1468 72.9331 90.6057L58.6295 91.7676C58.6295 91.7676 53.1938 53.885 95.9711 47.9285C133.146 42.7533 142.855 82.8862 142.855 82.8862Z" fill="#F84616"/>
<path d="M67.4169 91.1197C67.4169 91.1197 56.8061 86.1649 51.3237 94.6122C45.8413 103.059 56.372 114.619 67.3635 110.999L67.4169 91.1197Z" fill="#FCD7AE"/>
<path d="M65.5075 100.422C65.2872 100.422 65.0668 100.342 64.8999 100.175C64.7463 100.021 61.0936 96.569 56.7731 99.6608C56.3791 99.9412 55.8382 99.8544 55.5578 99.4604C55.2773 99.0664 55.3708 98.5255 55.7581 98.2451C60.1854 95.0799 64.4725 97.3102 66.1219 98.9329C66.4625 99.2735 66.4691 99.821 66.1352 100.168C65.9549 100.335 65.7279 100.422 65.5075 100.422Z" fill="#F0B686"/>
<path d="M129.198 100.61C130.542 100.448 131.439 98.7233 131.203 96.757C130.966 94.7908 129.685 93.3278 128.341 93.4895C126.998 93.6512 126.1 95.3762 126.337 97.3425C126.573 99.3087 127.854 100.772 129.198 100.61Z" fill="black"/>
<path d="M104.948 98.9083C105.31 96.9612 104.524 95.1822 103.194 94.9349C101.863 94.6875 100.491 96.0655 100.129 98.0126C99.767 99.9597 100.552 101.739 101.883 101.986C103.214 102.233 104.586 100.855 104.948 98.9083Z" fill="black"/>
<path d="M142.856 82.8858C142.856 82.8858 176.892 68.1615 151.056 63.6006C109.941 56.3486 90.7297 87.1128 72.9336 90.5986C72.9336 90.5986 101.207 84.9092 118.162 82.1446C135.116 79.3867 142.856 82.8858 142.856 82.8858Z" fill="#FB610F"/>
<path d="M118.221 149.176C118.221 149.176 125.76 152.014 138.321 168.708C154.574 190.31 171.916 198.157 171.916 198.157C171.916 198.157 159.028 229.322 134.394 233.495L104.959 184.073L103.724 149.176H118.221Z" fill="#00BFAA"/>
<path d="M56.8592 244.427C60.1714 229.375 64.5052 214.337 70.2146 200.094C73.4066 192.04 77.1127 184.167 81.5467 176.755L82.6485 174.511C84.7587 170.178 83.8972 164.802 80.1711 161.363C75.6236 157.163 68.5252 157.443 64.3182 161.991L62.4952 163.961C47.5639 180.969 36.2452 200.868 26.5091 221.169C22.9365 228.688 19.5643 236.581 16.4658 244.434H56.8592V244.427Z" fill="#FCD7AE"/>
<path d="M253.198 183.867C253.198 183.867 263.955 174.745 272.423 171.272L290.199 182.271L307.774 202.738C307.774 202.738 287.708 208.781 287.1 208.554C286.493 208.327 257.879 231.358 210.313 229.282L253.198 183.867Z" fill="#FCD7AE"/>
<path d="M286.339 208.253C286.392 208.28 286.445 208.3 286.499 208.327C286.853 208.487 295.227 212.206 301.864 213.502C324.214 217.862 339.66 201.295 340.308 200.587C342.505 198.177 342.338 194.444 339.934 192.24C337.536 190.043 333.804 190.21 331.6 192.601C331.072 193.168 319.827 204.968 304.128 201.903C298.826 200.868 291.387 197.569 291.313 197.535C288.335 196.207 284.843 197.535 283.514 200.52C282.212 203.452 283.474 206.871 286.339 208.253Z" fill="#FCD7AE"/>
<path d="M288.87 196.66C288.924 196.687 288.977 196.707 289.03 196.734C289.384 196.894 297.758 200.614 304.396 201.909C326.746 206.27 342.192 189.702 342.839 188.994C345.036 186.584 344.869 182.851 342.465 180.647C340.068 178.45 336.335 178.617 334.132 181.008C333.604 181.575 322.359 193.375 306.659 190.31C302.239 189.449 295.915 186.864 293.852 185.943C290.873 184.614 287.381 185.943 286.052 188.928C284.743 191.859 286.005 195.278 288.87 196.66Z" fill="#FCD7AE"/>
<path d="M303.574 190.297C304.022 190.511 304.502 190.671 305.01 190.771C327.36 195.132 342.806 178.564 343.453 177.863C345.657 175.453 345.484 171.72 343.08 169.516C340.682 167.326 336.956 167.479 334.752 169.877C334.258 170.411 323.006 182.251 307.28 179.179C304.082 178.551 300.977 180.641 300.349 183.846C299.815 186.538 301.21 189.162 303.574 190.297Z" fill="#FCD7AE"/>
<path d="M272.129 188.594C273.197 189.109 274.432 189.309 275.688 189.089C280.115 188.327 288.496 187.379 292.108 188.087C314.459 192.454 329.904 175.88 330.552 175.179C332.749 172.768 332.582 169.036 330.178 166.832C327.781 164.635 324.048 164.802 321.844 167.192C321.317 167.76 310.071 179.56 294.372 176.494C287.454 175.146 275.067 177.209 273.678 177.449C270.466 178.004 268.309 181.062 268.863 184.274C269.204 186.231 270.466 187.793 272.129 188.594Z" fill="#FCD7AE"/>
<path d="M268.609 183.833C270.272 184.634 272.282 184.647 274.025 183.686C287.046 176.514 302.218 175.385 302.371 175.372C305.623 175.145 308.081 172.327 307.854 169.075C307.633 165.823 304.822 163.366 301.57 163.586C300.849 163.633 283.707 164.868 268.328 173.335C265.47 174.911 264.429 178.504 266.005 181.362C266.619 182.477 267.541 183.319 268.609 183.833Z" fill="#FCD7AE"/>
<path d="M309.31 194.443C308.709 194.443 308.115 194.41 307.527 194.343C307.126 194.296 306.839 193.936 306.886 193.529C306.933 193.128 307.3 192.841 307.701 192.887C317.029 193.976 327.453 185.255 332.468 181.061C333.283 180.38 333.924 179.846 334.405 179.485C337.41 177.215 340.568 178.363 341.817 179.285C342.144 179.525 342.211 179.986 341.97 180.307C341.73 180.634 341.269 180.701 340.949 180.46C340.842 180.38 338.157 178.49 335.286 180.654C334.832 180.994 334.204 181.522 333.41 182.19C328.542 186.25 318.739 194.443 309.31 194.443Z" fill="#F0B686"/>
<path d="M305.478 186.397C304.676 186.397 303.868 186.35 303.067 186.25C302.666 186.203 302.379 185.836 302.426 185.435C302.473 185.035 302.84 184.747 303.241 184.794C316.903 186.47 331.3 172.006 331.447 171.859C331.728 171.572 332.195 171.566 332.482 171.859C332.769 172.14 332.776 172.607 332.489 172.895C332.335 173.048 328.709 176.714 323.274 180.227C318.766 183.138 312.209 186.403 305.478 186.403V186.397Z" fill="#F0B686"/>
<path d="M140.083 240.854C139.636 240.854 139.262 240.514 139.215 240.066C134.921 194.398 126.387 166.345 126.3 166.064C126.16 165.603 126.414 165.116 126.875 164.976C127.335 164.829 127.823 165.089 127.963 165.55C128.05 165.83 136.631 194.057 140.944 239.899C140.991 240.38 140.637 240.801 140.157 240.848C140.143 240.854 140.116 240.854 140.083 240.854Z" fill="#009283"/>
<path d="M73.24 146.385C73.24 146.385 46.8097 151.36 18.9971 221.709C18.9971 221.709 47.591 234.457 72.4454 237.195C72.4454 237.201 104.572 165.67 73.24 146.385Z" fill="#00BFAA"/>
<path d="M72.4385 238.076C72.4051 238.076 72.3718 238.076 72.3384 238.069C72.1647 238.049 54.8228 236.013 42.9097 231.699C42.4557 231.532 42.2219 231.031 42.3889 230.584C42.5558 230.13 43.0567 229.896 43.5041 230.063C53.8345 233.809 68.3585 235.812 71.7908 236.253L81.9543 197.936C82.0811 197.469 82.5553 197.195 83.0227 197.315C83.4901 197.436 83.7639 197.916 83.6437 198.384L73.2799 237.435C73.1798 237.809 72.8325 238.076 72.4385 238.076Z" fill="#009283"/>
<path d="M279.106 217.161C276.362 217.161 273.51 217.114 270.525 217.014C267.534 216.914 265.19 214.41 265.29 211.418C265.39 208.427 267.888 206.09 270.886 206.183C321.45 207.859 330.965 194.143 331.059 194.003C330.972 194.143 330.939 194.217 330.939 194.217L340.535 199.245C339.52 201.168 329.596 217.161 279.106 217.161Z" fill="#FCD7AE"/>
<path d="M312.368 201.629H311.881C311.567 201.629 311.287 201.422 311.193 201.122C310.973 200.441 305.51 184.374 284.596 183.947C284.188 183.947 283.868 183.606 283.881 183.199C283.895 182.791 284.215 182.464 284.629 182.484C296.101 182.718 303.086 187.633 306.933 191.72C310.325 195.332 311.908 198.871 312.408 200.167C322.619 200.167 325.61 197.269 328.775 194.204C329.517 193.489 330.285 192.748 331.139 192.04C336.081 187.993 340.375 191.659 340.415 191.693C340.722 191.96 340.749 192.421 340.481 192.728C340.214 193.028 339.754 193.062 339.453 192.801C339.313 192.681 336.034 189.93 332.068 193.175C331.253 193.843 330.512 194.564 329.79 195.259C326.545 198.391 323.2 201.629 312.368 201.629Z" fill="#F0B686"/>
<path d="M121.245 206.537L117.96 205.822C118.06 205.348 128.11 158.331 118.06 136.214L121.125 134.818C125.566 144.574 126.928 159.633 125.179 179.572C123.876 194.317 121.272 206.417 121.245 206.537Z" fill="#FF2B00"/>
<path d="M118.975 209.442L118.782 208.707C120.705 208.2 120.772 206.617 120.698 205.896L115.65 206.998C115.683 207.111 115.73 207.245 115.797 207.385L115.102 207.692C114.882 207.192 114.815 206.778 114.815 206.764C114.788 206.564 114.915 206.377 115.109 206.337L120.932 205.061C121.132 205.021 121.333 205.142 121.379 205.335C121.666 206.464 121.546 208.768 118.975 209.442Z" fill="#888888"/>
<path d="M118.641 207.566C108.651 200.674 59.3631 165.029 70.1543 140.074L73.2394 141.41C63.2829 164.428 114.661 200.734 120.551 204.794L118.641 207.566Z" fill="#FF2B00"/>
<path d="M114.982 237.876L135.116 234.17L128.405 206.998L109.914 211.105L114.982 237.876ZM115.617 212.12C115.517 211.632 115.837 211.158 116.325 211.058L123.082 209.696C123.57 209.596 124.037 209.91 124.144 210.39V210.417C124.258 210.911 123.937 211.392 123.443 211.492L116.679 212.834C116.191 212.921 115.717 212.607 115.617 212.12Z" fill="white"/>
<path d="M119.116 211.519C117.333 211.519 116.491 210.291 116.124 209.456L116.879 209.122C117.473 210.478 118.568 210.958 120.124 210.544L120.331 211.346C119.89 211.466 119.483 211.519 119.116 211.519Z" fill="#888888"/>
<path d="M121.568 205.279L116.828 206.267L117.389 208.96L122.129 207.972L121.568 205.279Z" fill="#FF2B00"/>
<path d="M694.699 144.368C694.699 144.368 693.567 148.817 689.332 147.942C685.098 147.068 684.959 143.462 684.959 143.462C684.959 143.462 681.033 148.597 673.766 146.527C666.499 144.457 670.872 136.957 670.872 136.957C670.872 136.957 663.919 135.27 663.844 128.393C663.768 121.516 668.927 120.1 668.927 120.1C668.927 120.1 667.141 113.525 669.55 106.56C671.96 99.5951 678.082 96.4114 680.505 96.1597C680.505 96.1597 681.499 86.3506 689.993 81.789C698.487 77.2273 711.662 81.4115 714.833 85.1426C714.833 85.1426 726.064 80.4362 736.27 88.3389C746.475 96.2352 743.858 105.497 743.858 105.497C743.858 105.497 750.823 106.585 752.981 113.016C755.139 119.446 752.742 125.914 752.742 125.914C752.742 125.914 759.393 130.828 755.19 139.064C750.987 147.3 740.007 142.921 740.007 142.921C740.007 142.921 733.464 153.089 720.27 144.073C707.075 135.056 720.27 144.073 720.27 144.073L694.699 144.368Z" fill="black"/>
<path d="M711.888 155.662C703.533 170.813 690.162 183.366 673.64 189.299C663.397 193.036 651.964 193.735 641.262 192.143C638.852 191.677 635.19 191.061 632.862 190.343C629.64 189.569 625.897 188.223 622.782 187.103C621.473 186.574 618.346 185.209 617.031 184.662C614.829 183.686 611.822 182.063 609.651 180.993C605.467 178.703 599.873 175.192 595.878 172.493L615.081 148.288L619.938 152.598L624.947 156.593C626.482 157.644 628.583 159.211 630.119 160.192C631.044 160.765 633.208 162.074 634.089 162.627C634.944 163.08 637.241 164.282 638.141 164.76C639.443 165.396 640.941 165.987 642.262 166.591C647.195 168.561 652.556 169.863 657.816 170.165C673.438 171.228 689.099 161.809 698.833 149.641L699.305 149.043L699.518 148.766L699.625 148.634C699.657 148.596 699.663 148.59 699.682 148.571L711.888 155.662Z" fill="#F7AF98"/>
<path d="M737.969 243.529C733.262 206.577 719.961 150.598 718.073 145.136C715.953 139.014 700.645 144.431 700.645 144.431C692.981 154.593 678.919 219.645 673.948 243.529H737.969Z" fill="#004FB0"/>
<path d="M680.932 113.243C680.932 113.243 677.232 111.45 673.935 113.595C670.638 115.741 670.626 121.026 673.746 123.033C676.867 125.04 680.775 124.071 680.775 124.071C680.775 124.071 682.637 138.555 696.429 143.947C710.221 149.34 723.88 147.389 733.52 137.209C737.654 132.465 739.038 126.494 739.038 126.494C739.038 126.494 742.983 127.758 745.864 126.865C748.746 125.971 750.055 121.567 748.683 118.824C747.312 116.08 744.442 114.281 739.774 115.445C739.774 115.445 736.691 101.943 728.593 96.2358C720.495 90.529 710.988 89.2265 702.897 91.133C694.812 93.0395 685.437 103.346 680.932 113.243Z" fill="#F7AF98"/>
<path d="M740.007 120.202C740.007 120.202 742.813 119.113 745.368 121.246L740.007 120.202Z" fill="#F7AF98"/>
<path d="M745.368 121.806C745.242 121.806 745.11 121.762 745.009 121.673C742.757 119.792 740.315 120.686 740.208 120.723C739.919 120.83 739.592 120.686 739.485 120.396C739.372 120.107 739.516 119.786 739.806 119.673C739.932 119.622 742.952 118.49 745.726 120.811C745.966 121.013 745.997 121.365 745.796 121.604C745.689 121.743 745.531 121.806 745.368 121.806Z" fill="#FFAD99"/>
<path d="M693.516 114.985C693.459 114.985 693.396 114.973 693.34 114.954C693.044 114.853 692.887 114.538 692.987 114.243C693.019 114.142 693.856 111.732 696.234 111.581C698.619 111.424 699.563 113.381 699.6 113.463C699.732 113.746 699.613 114.079 699.33 114.211C699.047 114.343 698.713 114.224 698.581 113.941C698.556 113.89 697.92 112.613 696.303 112.708C694.667 112.808 694.057 114.583 694.051 114.601C693.969 114.834 693.749 114.985 693.516 114.985Z" fill="black"/>
<path d="M721.257 115.765C720.999 115.765 720.773 115.589 720.71 115.331C720.697 115.287 720.364 114.047 718.596 113.739C716.809 113.431 716.01 114.456 715.978 114.5C715.796 114.746 715.437 114.796 715.192 114.614C714.946 114.431 714.89 114.085 715.072 113.834C715.123 113.764 716.299 112.204 718.791 112.632C721.314 113.066 721.786 114.998 721.805 115.079C721.874 115.381 721.685 115.683 721.383 115.753C721.339 115.759 721.295 115.765 721.257 115.765Z" fill="black"/>
<path d="M708.164 122.97C708.126 122.97 708.095 122.964 708.057 122.958L698.996 121.208C698.801 121.171 698.638 121.032 698.575 120.843C698.512 120.655 698.55 120.447 698.675 120.29L706.572 110.99C706.773 110.751 707.126 110.726 707.365 110.927C707.604 111.129 707.629 111.481 707.428 111.72L700.154 120.29L708.271 121.856C708.579 121.913 708.774 122.209 708.717 122.517C708.661 122.788 708.428 122.97 708.164 122.97Z" fill="black"/>
<path d="M697.536 126.752C697.536 126.752 709.673 126.469 719.734 127.972C719.734 127.972 718.318 137.838 708.044 137.001C697.769 136.171 697.536 126.752 697.536 126.752Z" fill="white"/>
<path d="M709.253 137.618C708.85 137.618 708.435 137.599 708 137.567C697.342 136.699 696.977 126.865 696.977 126.771C696.971 126.62 697.027 126.475 697.134 126.368C697.235 126.261 697.38 126.198 697.531 126.192C697.65 126.185 709.831 125.921 719.823 127.419C720.131 127.463 720.339 127.746 720.295 128.054C720.276 128.155 718.797 137.618 709.253 137.618ZM698.141 127.305C698.374 129.294 699.771 135.768 708.082 136.441C716.438 137.121 718.602 130.458 719.062 128.444C710.549 127.236 700.645 127.274 698.141 127.305Z" fill="black"/>
<path d="M699.241 147.898C699.241 147.898 687.878 161.747 675.093 167.429L687.167 187.311L706.345 155.354L699.241 147.898Z" fill="#004FB0"/>
<path d="M715.99 163.552C707.352 184.278 690.829 202.424 669.027 209.54C662.761 211.679 655.89 212.73 649.283 213.032C647.245 212.988 644.653 213.101 642.633 212.956L638.241 212.604C625.368 211.226 612.778 207.004 601.622 201.625L616.729 174.67C628.375 182.378 640.632 188.003 654.374 188.468C661.433 188.594 668.316 187.172 674.822 184.19C686.563 178.754 696.36 168.882 703.098 157.82C703.086 157.808 715.99 163.552 715.99 163.552Z" fill="#F7AF98"/>
<path d="M664.926 182.441C659.93 182.441 653.563 181.535 646.767 178.295C646.453 178.144 646.321 177.767 646.472 177.452C646.623 177.137 646.994 177.005 647.315 177.156C662.151 184.228 674.842 179.843 674.974 179.793C675.301 179.673 675.66 179.843 675.779 180.176C675.899 180.504 675.729 180.862 675.396 180.982C675.326 181.007 671.205 182.441 664.926 182.441Z" fill="#E08357"/>
<path d="M702.199 153.58L718.741 161.451C718.741 161.451 713.562 189.564 688.111 203.884C688.111 203.884 679.913 197.907 675.182 180.39C675.182 180.39 694.152 170.625 702.199 153.58Z" fill="#004FB0"/>
<path d="M690.717 206.942C690.559 206.942 690.402 206.885 690.282 206.766C682.122 198.964 676.704 187.336 676.654 187.223C676.509 186.908 676.648 186.531 676.962 186.386C677.277 186.241 677.654 186.386 677.799 186.694C677.85 186.808 683.015 197.875 690.792 205.507C692.881 204.098 702.545 197.214 711.694 184.807C711.901 184.53 712.298 184.467 712.575 184.675C712.858 184.882 712.914 185.279 712.707 185.556C702.281 199.693 691.163 206.772 691.05 206.841C690.949 206.91 690.836 206.942 690.717 206.942Z" fill="#003A7A"/>
<path d="M679 117.181C679 117.181 675.628 116.118 673.671 118.427L679 117.181Z" fill="#F7AF98"/>
<path d="M673.671 118.987C673.545 118.987 673.413 118.943 673.306 118.855C673.067 118.654 673.041 118.301 673.237 118.062C675.407 115.495 679.006 116.596 679.164 116.647C679.459 116.741 679.623 117.056 679.528 117.351C679.434 117.647 679.119 117.811 678.824 117.722C678.792 117.716 675.779 116.804 674.092 118.792C673.992 118.918 673.834 118.987 673.671 118.987Z" fill="#FFAD99"/>
<path d="M684.802 107.655C684.802 107.655 685.085 110.568 688.847 111.147C692.61 111.726 701.928 105.421 703.973 98.0219C703.973 98.0219 704.131 102.313 708.214 103.043C712.298 103.773 717.482 97.5312 717.482 97.5312C717.482 97.5312 717.287 103.112 723.503 107.737C729.72 112.361 734.911 108.435 734.911 108.435C734.911 108.435 734.823 114.5 740.794 115.312C740.794 115.312 739.938 87.7724 712.411 88.7665C688.696 89.6348 684.802 107.655 684.802 107.655Z" fill="black"/>
<path d="M598.364 167.008C587.555 190.603 566.47 208.289 543.014 218.727C528.945 224.944 513.744 228.738 498.562 230.55L497.31 191.918C525.019 194.22 554.453 187.431 574.927 167.757C577.651 165.145 580.187 162.364 582.402 159.338C582.452 159.275 582.521 159.168 582.502 159.231L598.364 167.008Z" fill="#FFD9AF"/>
<path d="M492.936 235.502C490.401 235.502 488.211 233.608 487.903 231.022C487.569 228.235 489.557 225.712 492.345 225.379C492.477 225.36 505.854 223.699 521.005 217.583C523.603 216.532 526.567 217.79 527.611 220.389C528.655 222.988 527.403 225.951 524.805 226.996C508.339 233.64 494.144 235.389 493.547 235.458C493.339 235.49 493.138 235.502 492.936 235.502Z" fill="#FFD9AF"/>
<path d="M475.904 226.744C472.783 226.744 470.833 226.631 470.556 226.612C467.756 226.435 465.629 224.019 465.812 221.219C465.988 218.42 468.398 216.299 471.198 216.475C471.43 216.488 494.427 217.822 513.825 210.297C516.436 209.284 519.381 210.58 520.394 213.197C521.407 215.815 520.111 218.753 517.494 219.766C501.739 225.875 484.442 226.744 475.904 226.744Z" fill="#FFD9AF"/>
<path d="M479.597 203.092H478.496C475.69 203.08 473.425 200.796 473.438 197.996C473.45 195.196 475.721 192.937 478.515 192.937H478.534C478.855 192.937 511 193.038 525.359 190.628C528.121 190.162 530.744 192.025 531.21 194.793C531.676 197.562 529.807 200.179 527.045 200.645C513.221 202.96 485.55 203.092 479.597 203.092Z" fill="#FFD9AF"/>
<path d="M487.11 210.246C477.647 210.246 470.014 209.856 469.668 209.843C466.869 209.699 464.717 207.314 464.861 204.514C465.006 201.714 467.378 199.562 470.191 199.701C479.836 200.198 506.86 200.783 515.933 197.599C518.582 196.668 521.476 198.065 522.407 200.707C523.338 203.356 521.942 206.251 519.299 207.182C513.787 209.12 503.695 210.145 489.305 210.24C488.563 210.24 487.833 210.24 487.11 210.24V210.246Z" fill="#FFD9AF"/>
<path d="M481.667 218.835C472.204 218.835 464.572 218.445 464.226 218.432C461.426 218.287 459.274 215.903 459.419 213.103C459.564 210.303 461.942 208.157 464.748 208.29C474.394 208.787 501.418 209.372 510.491 206.188C513.139 205.257 516.034 206.654 516.965 209.296C517.896 211.945 516.499 214.839 513.857 215.771C508.345 217.709 498.253 218.734 483.863 218.829C483.121 218.835 482.391 218.835 481.667 218.835Z" fill="#FFD9AF"/>
<path d="M490.539 226.68C490.256 226.68 489.985 226.51 489.872 226.233C489.715 225.862 489.891 225.441 490.262 225.283C490.312 225.264 491.533 224.755 494.056 224.201C496.604 223.641 505.589 221.036 505.684 221.011C506.067 220.898 506.47 221.118 506.583 221.508C506.697 221.898 506.476 222.295 506.086 222.408C505.715 222.515 496.963 225.051 494.371 225.623C491.999 226.145 490.841 226.617 490.828 226.624C490.728 226.661 490.633 226.68 490.539 226.68Z" fill="#FAB47F"/>
<path d="M466.717 219.249C466.61 219.249 466.503 219.224 466.397 219.174C466.038 218.998 465.893 218.57 466.063 218.211C466.107 218.123 467.114 216.097 470.102 215.808C470.719 215.745 471.959 215.732 473.683 215.713C479.767 215.644 491.092 215.518 500.581 213.303C500.971 213.215 501.361 213.454 501.449 213.845C501.537 214.235 501.298 214.625 500.908 214.713C491.269 216.959 479.836 217.091 473.695 217.16C472.009 217.179 470.795 217.192 470.241 217.248C468.095 217.456 467.397 218.79 467.366 218.847C467.24 219.105 466.982 219.249 466.717 219.249Z" fill="#FAB47F"/>
<path d="M477.125 209.478C470.902 209.478 466.485 209.151 466.391 209.145C465.994 209.113 465.692 208.767 465.724 208.364C465.755 207.968 466.095 207.66 466.504 207.697C466.687 207.71 485.248 209.082 499.895 206.143C500.285 206.068 500.669 206.319 500.751 206.71C500.827 207.1 500.575 207.483 500.185 207.565C492.509 209.1 483.788 209.478 477.125 209.478Z" fill="#FAB47F"/>
<path d="M482.328 200.814C477.25 200.814 473.658 200.663 473.588 200.663C473.186 200.644 472.877 200.304 472.896 199.908C472.915 199.518 473.236 199.216 473.62 199.216H473.651C473.796 199.216 488.356 199.826 500.411 198.574C500.814 198.524 501.166 198.819 501.21 199.222C501.254 199.618 500.965 199.977 500.562 200.021C494.383 200.65 487.563 200.814 482.328 200.814Z" fill="#FAB47F"/>
<path d="M650.549 244.468C634.284 194.969 622.845 158.86 600.956 131.993L582.445 135.46C582.445 135.46 570.729 198.216 562.04 244.461H650.549V244.468Z" fill="#FF5C34"/>
<path d="M584.703 138.512L587.711 151.863L595.689 136.637L584.703 138.512Z" fill="#FFD9AF"/>
<path d="M639.155 220.634C643.15 228.297 646.384 236.276 649.077 244.468H688.364C687.816 243.115 687.263 241.768 686.696 240.416C668.934 197.895 644.943 175.634 610.835 146.704C599.83 137.75 585.749 152.108 594.941 162.943C611.313 181.127 628.181 199.254 639.155 220.634Z" fill="#FFD9AF"/>
<path d="M607.021 141.191C607.021 141.191 636.304 164.302 652.921 185.94C652.921 185.94 640.651 203.412 623.141 204.859L602.277 179.956L589.725 162.477L592.908 144.274L607.021 141.191Z" fill="#FF5C34"/>
<path d="M626.526 205.571C626.236 205.571 625.959 205.414 625.821 205.149C625.752 205.024 618.919 192.163 613.067 182.146C612.847 181.769 612.973 181.278 613.351 181.058C613.728 180.837 614.219 180.963 614.439 181.341C619.624 190.212 625.569 201.299 626.935 203.86C635.114 201.815 641.507 196.24 641.57 196.183C641.903 195.888 642.407 195.925 642.696 196.253C642.985 196.58 642.954 197.089 642.627 197.379C642.344 197.631 635.561 203.545 626.696 205.558C626.639 205.571 626.576 205.577 626.519 205.577L626.526 205.571Z" fill="#E53E00"/>
<path d="M581.011 138.649L575.53 156.33L580.262 157.506L583.521 139.493L581.011 138.649Z" fill="#FF5C34"/>
<path d="M614.635 123.221C608.097 138.007 592.191 143.771 577.047 139.599C560.681 135.094 552.055 120.057 556.208 104.987C558.611 96.2605 565.337 89.3142 573.743 85.8851C579.859 83.3935 585.692 86.6087 592.581 88.5088C608.953 93.0202 620.958 108.926 614.635 123.221Z" fill="#FFD9AF"/>
<path d="M566.153 107.011C566.679 105.74 566.474 104.447 565.694 104.124C564.913 103.801 563.854 104.569 563.328 105.841C562.801 107.112 563.006 108.405 563.787 108.728C564.567 109.051 565.626 108.282 566.153 107.011Z" fill="black"/>
<path d="M581.638 112.004C581.884 110.65 581.41 109.43 580.58 109.279C579.749 109.128 578.876 110.103 578.63 111.457C578.383 112.811 578.857 114.031 579.688 114.182C580.519 114.333 581.392 113.358 581.638 112.004Z" fill="black"/>
<path d="M572.925 121.579C572.837 121.579 572.749 121.567 572.667 121.529L563.072 117.873C562.864 117.792 562.707 117.622 562.638 117.414C562.569 117.2 562.606 116.974 562.732 116.791L573.548 100.91C573.774 100.577 574.227 100.495 574.555 100.722C574.888 100.948 574.97 101.401 574.743 101.728L564.444 116.848L573.183 120.176C573.561 120.321 573.743 120.736 573.605 121.114C573.498 121.403 573.221 121.579 572.925 121.579Z" fill="black"/>
<path d="M587.365 124.593C579.299 127.581 570.333 125.404 570.333 125.404C570.333 125.404 571.528 132.464 579.236 132.628C587.837 132.804 587.365 124.593 587.365 124.593Z" fill="white"/>
<path d="M579.507 133.358C579.412 133.358 579.318 133.358 579.217 133.358C574.933 133.269 572.548 131.143 571.296 129.381C569.956 127.481 569.622 125.612 569.61 125.53C569.572 125.291 569.654 125.046 569.83 124.876C570.006 124.712 570.258 124.643 570.497 124.7C570.585 124.719 579.35 126.789 587.108 123.913C587.321 123.832 587.567 123.863 587.756 123.989C587.951 124.115 588.07 124.322 588.083 124.555C588.089 124.712 588.278 128.444 585.786 131.023C584.289 132.577 582.175 133.364 579.501 133.364L579.507 133.358ZM571.346 126.355C572.001 128.204 573.951 131.797 579.255 131.904C581.633 131.954 583.49 131.319 584.748 130.023C586.095 128.632 586.491 126.757 586.604 125.625C580.375 127.607 573.945 126.814 571.346 126.355Z" fill="black"/>
<path d="M562.562 94.3734C562.562 94.3734 573.655 98.935 590.882 90.1326C592.569 89.2706 599.125 89.5412 600.553 87.836C600.553 87.836 579.481 74.0945 562.562 94.3734Z" fill="black"/>
<path d="M588.07 83.457C588.07 83.457 578.651 85.483 579.23 90.5229C580.287 99.6902 588.359 114.665 616.566 121.479C616.566 121.479 622.896 89.6483 588.07 83.457Z" fill="black"/>
<path d="M609.242 118.623C609.242 118.623 615.874 114.313 620.53 120.749C625.481 127.601 615.993 139.682 606.348 131.817L609.242 118.623Z" fill="#FFD9AF"/>
<path d="M610.394 125.348C610.243 125.348 610.085 125.298 609.959 125.203C609.639 124.964 609.576 124.505 609.815 124.19C609.89 124.09 611.727 121.699 614.42 121.611C616.1 121.56 617.68 122.391 619.139 124.083C619.404 124.385 619.366 124.845 619.064 125.109C618.762 125.373 618.303 125.335 618.045 125.033C616.887 123.687 615.704 123.033 614.477 123.064C612.47 123.127 610.998 125.046 610.985 125.071C610.84 125.26 610.626 125.361 610.406 125.361L610.394 125.348Z" fill="#FAB47F"/>
<path d="M469.599 243.986C485.253 216.604 496.233 186.616 502.047 155.641L476.715 150.576C476.47 151.463 475.891 153.508 475.633 154.37C469.423 174.769 460.639 194.519 449.673 212.784C443.884 222.367 437.498 231.503 430.268 240.016C429.142 241.362 427.984 242.684 426.82 243.986H469.599Z" fill="#FAB47F"/>
<path d="M533.43 243.986C519.494 182.672 500.064 129.662 500.064 129.662L476.765 131.65C473.563 164.129 460.865 201.761 448.76 243.986H533.43Z" fill="#9E5D28"/>
<path d="M495.78 134.18C495.78 134.18 492.734 141.736 485.631 140.491C478.527 139.245 478.93 131.65 478.93 131.65L495.78 134.18Z" fill="#FAB47F"/>
<path d="M457.261 108.641C457.261 124.654 470.241 135.677 486.254 135.677C502.267 135.677 515.247 124.654 515.247 108.641C515.247 92.6277 502.267 79.6475 486.254 79.6475C470.241 79.6475 457.261 92.6277 457.261 108.641Z" fill="#FAB47F"/>
<path d="M513.976 117.154L512.944 106.64C506.269 107.143 496.818 95.931 496.22 86.3925C496.22 86.3925 491.143 90.2557 484.064 91.7595C476.854 93.2947 478.779 85.8325 478.779 85.8325C478.779 85.8325 471.078 92.7662 463.477 91.7658C455.876 90.7654 469.228 70.82 489.324 72.9718C509.421 75.1237 511.101 89.3057 511.101 89.3057C518.682 90.9982 521.577 106.64 513.976 117.154Z" fill="#592E00"/>
<path d="M512.944 106.64C512.944 106.64 522.3 104.036 524.873 112.762C526.559 118.488 520.041 128.159 508.231 123.018L505.242 110.824L512.944 106.64Z" fill="#FAB47F"/>
<path d="M520.539 114.581C520.325 114.581 520.111 114.486 519.966 114.304C519.846 114.159 517.235 110.994 512.586 113.423C512.233 113.605 511.793 113.473 511.604 113.115C511.422 112.762 511.554 112.322 511.912 112.133C517.663 109.132 521.067 113.36 521.105 113.404C521.35 113.719 521.3 114.178 520.979 114.423C520.853 114.53 520.696 114.581 520.539 114.581Z" fill="#592E00"/>
<path d="M466.881 108.458C466.157 108.458 465.433 108.376 464.716 108.213C462.212 107.64 460.085 106.124 458.72 103.953C457.355 101.776 456.921 99.2028 457.493 96.6986C458.066 94.1944 459.582 92.0678 461.753 90.7024C463.93 89.3371 466.503 88.9029 469.007 89.4755C474.173 90.6584 477.413 95.824 476.23 100.99C475.658 103.494 474.141 105.621 471.971 106.986C470.423 107.955 468.667 108.458 466.881 108.458ZM466.849 90.6835C465.333 90.6835 463.848 91.1114 462.533 91.9356C460.689 93.0933 459.399 94.8991 458.915 97.0258C458.431 99.1525 458.795 101.336 459.953 103.186C461.111 105.035 462.917 106.319 465.043 106.803C467.17 107.288 469.353 106.923 471.203 105.765C473.047 104.608 474.337 102.802 474.821 100.675C475.828 96.2896 473.078 91.9042 468.693 90.8975C468.076 90.7528 467.459 90.6835 466.849 90.6835Z" fill="#98989A"/>
<path d="M489.138 104.988C489.223 103.594 488.59 102.421 487.723 102.367C486.855 102.314 486.083 103.401 485.998 104.796C485.912 106.19 486.546 107.363 487.413 107.417C488.28 107.47 489.052 106.383 489.138 104.988Z" fill="black"/>
<path d="M471.846 99.7022C472.334 98.3935 472.07 97.0863 471.256 96.7825C470.443 96.4787 469.387 97.2933 468.898 98.602C468.41 99.9107 468.673 101.218 469.487 101.522C470.301 101.826 471.357 101.011 471.846 99.7022Z" fill="black"/>
<path d="M480.024 115.857C479.942 115.857 479.854 115.845 479.772 115.813L468.837 111.799C468.616 111.717 468.447 111.535 468.384 111.308C468.321 111.082 468.377 110.836 468.528 110.654L479.728 97.1641C479.986 96.8558 480.439 96.8117 480.747 97.0697C481.056 97.3277 481.1 97.7807 480.842 98.089L470.296 110.786L480.263 114.448C480.64 114.586 480.829 115.002 480.691 115.379C480.596 115.675 480.319 115.857 480.024 115.857Z" fill="black"/>
<path d="M472.645 118.94C481.793 121.079 489.167 117.071 489.167 117.071C489.167 117.071 490.243 125.389 482.529 126.692C474.022 128.132 472.645 118.94 472.645 118.94Z" fill="white"/>
<path d="M480.786 127.573C478.967 127.573 477.357 127.069 475.979 126.075C472.65 123.665 471.952 119.236 471.927 119.047C471.889 118.808 471.977 118.569 472.153 118.405C472.329 118.242 472.575 118.179 472.807 118.235C481.591 120.286 488.745 116.48 488.814 116.436C489.022 116.323 489.28 116.316 489.494 116.43C489.708 116.536 489.852 116.744 489.884 116.983C489.896 117.071 490.953 126.012 482.648 127.409C482.006 127.522 481.383 127.573 480.786 127.573ZM473.613 119.884C473.997 121.218 474.909 123.514 476.841 124.905C478.338 125.987 480.213 126.346 482.409 125.981C487.858 125.062 488.493 120.324 488.499 118.198C486.253 119.173 480.54 121.167 473.613 119.884Z" fill="black"/>
<path d="M490.576 115.883C489.865 115.883 489.147 115.801 488.43 115.638C485.926 115.065 483.799 113.549 482.434 111.378C481.068 109.201 480.634 106.628 481.207 104.123C481.78 101.619 483.296 99.4926 485.467 98.1272C487.637 96.7619 490.217 96.3277 492.721 96.9003C497.887 98.0832 501.127 103.249 499.944 108.415C498.919 112.863 494.949 115.883 490.576 115.883ZM490.557 98.1083C489.04 98.1083 487.555 98.5362 486.24 99.3604C484.397 100.518 483.107 102.324 482.623 104.451C482.138 106.577 482.503 108.761 483.661 110.61C484.819 112.46 486.624 113.744 488.751 114.228C490.878 114.719 493.061 114.348 494.911 113.19C496.754 112.032 498.044 110.227 498.529 108.1C499.535 103.714 496.786 99.329 492.4 98.3223C491.784 98.1776 491.167 98.1083 490.557 98.1083Z" fill="#98989A"/>
<path d="M482.635 102.997C482.459 102.997 482.283 102.934 482.144 102.808C479.319 100.228 475.802 100.581 475.764 100.581C475.349 100.625 475.009 100.335 474.965 99.9391C474.921 99.5427 475.211 99.184 475.607 99.14C475.777 99.1211 479.816 98.7184 483.12 101.739C483.415 102.009 483.434 102.468 483.164 102.764C483.032 102.915 482.837 102.997 482.635 102.997Z" fill="#98989A"/>
<path d="M450.792 243.987H537.118C547.531 238.532 554.634 229.094 554.559 215.962C554.276 200.447 544.523 185.742 534.84 174.461L514.335 192.015C516.027 194.306 517.688 196.76 519.135 199.207C521.778 203.775 524.175 208.437 524.968 213.452C525.081 214.352 525.088 215.1 525.025 215.585C524.968 216.088 524.836 216.264 524.779 216.214C524.716 216.176 524.754 215.962 524.754 215.887C524.729 215.862 524.76 215.855 524.735 215.849C524.697 215.849 524.672 215.849 524.653 215.862C524.622 215.874 524.528 215.893 524.483 215.925C524.421 215.975 524.326 216 524.244 216.032C523.364 216.478 521.482 217.001 520.318 217.202C517.663 217.705 514.989 217.919 511.767 217.926C502.544 217.919 493.408 216.554 484.033 214.748C471.078 212.194 458.016 208.676 445.3 204.845C438.832 202.919 432.37 200.812 425.914 198.691L415.017 235.776C421.931 237.525 428.853 239.255 435.862 240.822C440.543 241.854 445.564 242.936 450.792 243.987Z" fill="#FAB47F"/>
<path d="M503.141 140.629C503.141 140.629 535.425 149.696 561.027 190.543C550.173 201.069 538.099 209.267 523.2 212.099L487.468 155.088L503.141 140.629Z" fill="#9E5D28"/>
<path d="M490.331 149.519C490.331 149.519 501.87 175.341 489.198 213.98C476.514 212.621 464.685 209.217 454.807 201.081L475.872 146.996L490.331 149.519Z" fill="#9E5D28"/>
<path d="M522.47 211.917C522.099 211.917 521.734 211.904 521.381 211.879C521.004 211.854 520.702 211.564 520.651 211.193C520.62 210.967 517.518 188.586 513.403 179.708C513.221 179.306 513.391 178.834 513.793 178.651C514.196 178.469 514.668 178.639 514.85 179.041C518.714 187.372 521.589 206.468 522.143 210.325C522.256 210.325 522.369 210.325 522.482 210.325C531.26 210.325 544.403 202.498 544.542 202.416C544.919 202.189 545.41 202.315 545.637 202.686C545.863 203.064 545.744 203.555 545.366 203.781C544.775 204.121 531.687 211.91 522.47 211.91V211.917Z" fill="#592E00"/>
<path d="M423.782 215.735C418.975 215.735 395.028 214.785 388.283 196.224C387.326 193.588 388.685 190.675 391.322 189.718C393.958 188.762 396.871 190.121 397.828 192.757C402.653 206.052 424.04 205.574 424.26 205.574C427.053 205.461 429.4 207.694 429.488 210.488C429.577 213.288 427.387 215.628 424.587 215.723C424.493 215.723 424.216 215.735 423.782 215.735Z" fill="#FAB47F"/>
<path d="M425.335 208.783C425.001 208.783 424.662 208.751 424.322 208.682C418.684 207.537 413.67 206.304 409.001 204.907C406.314 204.102 404.785 201.277 405.591 198.59C406.396 195.903 409.221 194.374 411.908 195.18C416.224 196.47 421.075 197.665 426.342 198.728C429.091 199.288 430.865 201.969 430.312 204.712C429.815 207.122 427.701 208.783 425.335 208.783Z" fill="#FAB47F"/>
<path d="M419.144 224.475C410.619 224.475 392.712 222.103 382.619 203.592C381.279 201.132 382.185 198.043 384.645 196.702C387.106 195.362 390.195 196.268 391.535 198.728C401.47 216.956 422.196 214.175 422.41 214.144C425.178 213.741 427.758 215.666 428.167 218.441C428.569 221.216 426.644 223.795 423.869 224.198C423.599 224.236 421.843 224.475 419.144 224.475Z" fill="#FAB47F"/>
<path d="M418.697 232.548C407.264 232.548 392.686 228.615 384.771 214.1C383.431 211.64 384.337 208.55 386.797 207.21C389.257 205.87 392.346 206.776 393.687 209.236C403.433 227.118 426.7 221.524 426.933 221.468C429.651 220.788 432.413 222.437 433.093 225.161C433.772 227.879 432.124 230.641 429.399 231.321C426.556 232.038 422.831 232.548 418.697 232.548Z" fill="#FAB47F"/>
<path d="M434.766 237.392C432.073 237.392 429.223 237.335 426.322 237.197C406.591 236.247 395.07 231.949 391.107 224.066C389.848 221.561 390.855 218.51 393.359 217.245C395.863 215.987 398.915 216.994 400.179 219.498C400.935 221.001 405.081 225.985 426.713 227.042C439.384 227.658 451.415 226.532 451.534 226.519C454.321 226.255 456.807 228.3 457.071 231.087C457.335 233.875 455.297 236.36 452.503 236.624C452.094 236.668 444.481 237.392 434.766 237.392Z" fill="#FAB47F"/>
<path d="M422.56 208.783C422.516 208.783 422.472 208.783 422.428 208.771C417.457 207.877 411.058 206.166 408.661 205.234C406.006 204.203 404.987 201.78 404.943 201.68C404.792 201.308 404.968 200.887 405.339 200.736C405.71 200.585 406.132 200.761 406.283 201.126C406.295 201.157 407.132 203.083 409.183 203.882C411.518 204.788 417.785 206.461 422.68 207.342C423.076 207.411 423.334 207.789 423.265 208.185C423.208 208.538 422.906 208.783 422.56 208.783Z" fill="#E08357"/>
<path d="M414.683 216.496H414.639C414.356 216.478 407.548 216.031 399.979 211.236C391.12 205.624 388.093 197.331 387.974 196.979C387.842 196.601 388.037 196.186 388.414 196.054C388.792 195.922 389.207 196.117 389.339 196.494C389.371 196.576 392.341 204.68 400.759 210.009C407.995 214.596 414.664 215.043 414.733 215.049C415.13 215.074 415.438 215.414 415.413 215.817C415.388 216.194 415.067 216.496 414.683 216.496Z" fill="#E08357"/>
<path d="M413.236 225.601H413.205C413.029 225.595 395.235 224.645 385.256 208.682C385.042 208.342 385.149 207.896 385.489 207.682C385.829 207.468 386.275 207.575 386.489 207.915C396.053 223.217 413.098 224.148 413.274 224.154C413.677 224.173 413.985 224.513 413.966 224.909C413.941 225.293 413.62 225.601 413.236 225.601Z" fill="#E08357"/>
<path d="M412.449 232.674H412.437C411.883 232.667 398.84 232.334 390.138 222.531C389.874 222.229 389.899 221.77 390.201 221.505C390.497 221.241 390.956 221.266 391.227 221.568C399.494 230.887 412.336 231.22 412.462 231.226C412.865 231.233 413.179 231.566 413.173 231.963C413.173 232.353 412.846 232.674 412.449 232.674Z" fill="#E08357"/>
</svg>
