<svg id="Layer_1" data-name="Layer 1" xmlns="http://www.w3.org/2000/svg" viewBox="0 0 512 512"><defs><style>.cls-1{fill:#fff;}.cls-2{fill:#724c68;}</style></defs><rect class="cls-1" width="512" height="512" rx="53.08"/><g id="layer1-7"><g id="g6564"><path id="path4323" class="cls-2" d="M94.38,130.46a14.23,14.23,0,0,0-14.19,14.18V368.33a14.24,14.24,0,0,0,14.19,14.21H414a14.24,14.24,0,0,0,14.19-14.21V144.64A14.23,14.23,0,0,0,414,130.46Zm37.83,34H376L254.14,271Zm267.55,17V338.74l-89.15-79.46Zm-291.18.09,89.51,78.22-89.51,79.8Zm180.5,96.6,84.81,75.62H135.32l84.32-75.17,25.13,22a14.25,14.25,0,0,0,18.68,0l25.63-22.41Z"/></g></g></svg>