<svg width="2431" height="890" viewBox="0 0 2431 890" fill="none" xmlns="http://www.w3.org/2000/svg">
<g clip-path="url(#clip0_11_14)">
<rect x="-4" y="186" width="2435" height="930" rx="91" fill="#F5F5F5"/>
<rect x="-4" y="186" width="2435" height="930" rx="91" fill="#1C274C"/>
<g filter="url(#filter0_d_11_14)">
<path d="M2268.01 749.163C2265.9 761.55 2266.56 760.627 2257.22 762.472C2252.49 763.526 2248.93 764.58 2249.33 764.844C2249.72 765.239 2253.41 766.162 2257.62 767.084L2265.25 768.534L2267.22 777.099C2269.46 786.191 2270.51 786.191 2271.96 776.967C2273.14 769.324 2274.19 768.138 2281.43 767.084C2291.43 765.635 2291.82 764.449 2282.74 762.604C2278.27 761.682 2274.06 760.232 2273.53 759.441C2273.01 758.783 2272.22 755.225 2271.82 751.799C2270.64 743.893 2269.06 742.707 2268.01 749.163Z" fill="white"/>
</g>
<g filter="url(#filter1_d_11_14)">
<path d="M1892.39 349C1877.62 349 1865.65 360.993 1865.65 375.787C1865.65 390.581 1877.62 402.573 1892.39 402.573H1953.52C1968.29 402.573 1980.26 390.581 1980.26 375.787C1980.26 360.993 1968.29 349 1953.52 349H1892.39Z" fill="#38B7FF"/>
<path d="M1892.39 349C1877.62 349 1865.65 360.993 1865.65 375.787C1865.65 390.581 1877.62 402.573 1892.39 402.573H1953.52C1968.29 402.573 1980.26 390.581 1980.26 375.787C1980.26 360.993 1968.29 349 1953.52 349H1892.39Z" fill="url(#paint0_linear_11_14)"/>
<path d="M1798.61 566.115C1785.5 513.585 1778.95 487.32 1792.71 469.66C1806.48 452 1833.51 452 1887.57 452H1958.33C2012.39 452 2039.41 452 2053.18 469.66C2066.95 487.32 2060.39 513.585 2047.28 566.115C2038.94 599.524 2034.77 616.229 2022.34 625.955C2009.9 635.68 1992.71 635.68 1958.33 635.68H1887.57C1853.18 635.68 1835.99 635.68 1823.56 625.955C1811.12 616.229 1806.95 599.524 1798.61 566.115Z" fill="url(#paint1_linear_11_14)"/>
<path d="M1977.67 387.302C1979.33 383.814 1980.26 379.909 1980.26 375.787C1980.26 371.684 1979.34 367.796 1977.69 364.32C1988.14 364.396 1996.28 364.877 2003.55 367.721C2012.23 371.121 2019.78 376.899 2025.34 384.396C2030.95 391.958 2033.58 401.652 2037.2 414.994L2037.91 417.602L2045.75 462.955C2039.5 458.64 2031.45 456.075 2021.03 454.552L2015.51 422.591C2011.17 406.676 2009.6 401.675 2006.94 398.085C2003.95 394.048 1999.88 390.937 1995.2 389.106C1991.84 387.791 1987.79 387.404 1977.67 387.302Z" fill="white"/>
<path d="M1868.22 364.32C1866.57 367.796 1865.65 371.684 1865.65 375.787C1865.65 379.909 1866.58 383.814 1868.24 387.302C1858.13 387.404 1854.07 387.791 1850.71 389.106C1846.03 390.937 1841.97 394.048 1838.97 398.085C1836.31 401.675 1834.74 406.676 1830.4 422.591L1824.88 454.55C1814.46 456.073 1806.41 458.636 1800.17 462.948L1808 417.602L1808.71 414.994C1812.33 401.652 1814.96 391.958 1820.57 384.396C1826.13 376.899 1833.68 371.121 1842.36 367.721C1849.63 364.877 1857.77 364.396 1868.22 364.32Z" fill="white"/>
<path d="M1873.29 513.547C1873.29 507.207 1868.16 502.067 1861.83 502.067C1855.5 502.067 1850.37 507.207 1850.37 513.547V574.774C1850.37 581.114 1855.5 586.254 1861.83 586.254C1868.16 586.254 1873.29 581.114 1873.29 574.774V513.547Z" fill="white"/>
<path d="M1984.08 502.067C1990.41 502.067 1995.54 507.207 1995.54 513.547V574.774C1995.54 581.114 1990.41 586.254 1984.08 586.254C1977.75 586.254 1972.62 581.114 1972.62 574.774V513.547C1972.62 507.207 1977.75 502.067 1984.08 502.067Z" fill="white"/>
<path d="M1934.42 513.547C1934.42 507.207 1929.28 502.067 1922.95 502.067C1916.63 502.067 1911.49 507.207 1911.49 513.547V574.774C1911.49 581.114 1916.63 586.254 1922.95 586.254C1929.28 586.254 1934.42 581.114 1934.42 574.774V513.547Z" fill="white"/>
</g>
<g filter="url(#filter2_d_11_14)">
<path d="M460.842 440.747C479.831 440.747 496.338 452.579 496.338 472.446C496.338 492.312 479.831 503.414 460.842 503.414H431.334V543H414.828V440.747H460.842ZM457.044 488.514C469.898 488.514 479.101 482.525 479.101 472.446C479.101 462.366 469.898 455.647 457.044 455.647H431.334V488.514H457.044ZM557.406 545.337C528.922 545.337 507.157 526.055 507.157 491.874C507.157 457.692 528.922 438.41 557.406 438.41C585.745 438.41 607.51 457.692 607.51 491.874C607.51 526.055 585.745 545.337 557.406 545.337ZM557.406 531.022C575.52 530.876 590.273 517.875 590.273 491.874C590.273 465.726 575.52 453.31 557.406 453.018C539.147 452.726 524.393 465.726 524.393 491.874C524.393 517.875 539.147 531.168 557.406 531.022ZM660.525 544.753C635.546 544.753 617.579 529.269 616.557 507.65H633.94C634.816 521.235 646.21 530.438 660.525 530.438C675.425 530.438 684.335 521.965 684.335 512.762C684.335 503.121 677.762 497.863 657.75 497.863H652.053C634.086 497.863 618.456 487.199 618.456 470.108C618.456 454.332 631.31 438.118 657.604 438.118C682.875 438.118 698.213 453.018 699.673 474.053H682.29C681.268 460.029 671.335 452.579 657.604 452.579C642.996 452.579 635.839 459.737 635.839 470.108C635.839 478.581 639.929 483.109 660.087 483.109H663.885C686.381 483.109 701.572 495.818 701.572 512.762C701.572 528.1 687.695 544.753 660.525 544.753ZM820.423 543L811.22 517.145H770.319L761.116 543H743.587L782.443 440.747H799.096L837.952 543H820.423ZM775.578 502.245H805.961L790.77 459.445L775.578 502.245ZM881.122 545.337C857.019 545.337 840.805 528.392 840.805 502.683C840.805 477.704 855.851 460.321 881.122 460.321C904.201 460.321 916.91 475.221 918.663 493.334H902.01C901.28 483.109 893.976 474.199 881.122 474.199C866.514 474.199 857.457 486.031 857.457 502.683C857.457 520.358 867.829 531.46 881.122 531.46C893.83 531.46 900.842 521.819 902.01 513.931H918.663C916.472 530.438 903.471 545.337 881.122 545.337ZM966.713 545.337C942.61 545.337 926.396 528.392 926.396 502.683C926.396 477.704 941.442 460.321 966.713 460.321C989.792 460.321 1002.5 475.221 1004.25 493.334H987.601C986.871 483.109 979.567 474.199 966.713 474.199C952.105 474.199 943.048 486.031 943.048 502.683C943.048 520.358 953.42 531.46 966.713 531.46C979.421 531.46 986.433 521.819 987.601 513.931H1004.25C1002.06 530.438 989.062 545.337 966.713 545.337ZM1089.55 495.526V508.526H1028.93C1030.83 522.842 1039.59 531.46 1051.57 531.46C1060.92 531.46 1068.52 526.201 1071.29 518.313H1088.82C1085.46 533.943 1071 545.337 1051.57 545.337C1027.91 545.337 1011.99 528.392 1011.99 502.829C1011.99 476.244 1028.2 460.321 1051.57 460.321C1073.48 460.321 1089.55 475.367 1089.55 495.526ZM1051.57 474.199C1039.45 474.199 1031.12 482.817 1029.08 494.211H1073.34C1071.59 482.379 1063.41 474.199 1051.57 474.199ZM1131.75 545.337C1113.05 545.337 1099.32 533.067 1098.3 516.414H1115.1C1115.97 525.179 1122.4 531.46 1131.75 531.46C1142.27 531.46 1149.28 526.201 1149.28 519.336C1149.28 511.594 1145.04 508.38 1131.16 508.38H1126.78C1111.74 508.38 1099.76 500.054 1099.76 485.592C1099.76 473.176 1110.57 460.321 1132.33 460.321C1151.32 460.321 1163.3 472.446 1164.47 488.66H1147.67C1146.94 479.457 1141.54 474.199 1132.33 474.199C1121.96 474.199 1116.41 479.019 1116.41 485.592C1116.41 491.874 1119.19 494.211 1133.06 494.357H1136.13C1154.24 494.357 1165.93 504.436 1165.93 519.336C1165.93 532.337 1154.24 545.337 1131.75 545.337ZM1208.5 545.337C1189.8 545.337 1176.07 533.067 1175.04 516.414H1191.84C1192.72 525.179 1199.15 531.46 1208.5 531.46C1219.01 531.46 1226.02 526.201 1226.02 519.336C1226.02 511.594 1221.79 508.38 1207.91 508.38H1203.53C1188.48 508.38 1176.51 500.054 1176.51 485.592C1176.51 473.176 1187.31 460.321 1209.08 460.321C1228.07 460.321 1240.05 472.446 1241.22 488.66H1224.42C1223.69 479.457 1218.28 474.199 1209.08 474.199C1198.71 474.199 1193.16 479.019 1193.16 485.592C1193.16 491.874 1195.93 494.211 1209.81 494.357H1212.88C1230.99 494.357 1242.68 504.436 1242.68 519.336C1242.68 532.337 1230.99 545.337 1208.5 545.337Z" fill="white"/>
</g>
<g filter="url(#filter3_d_11_14)">
<path d="M430.399 580.088C438.974 580.088 446.428 585.431 446.428 594.402C446.428 603.373 438.974 608.386 430.399 608.386H417.074V626.262H409.621V580.088H430.399ZM428.684 601.658C434.489 601.658 438.644 598.954 438.644 594.402C438.644 589.851 434.489 586.816 428.684 586.816H417.074V601.658H428.684ZM468.611 627.318C458.453 627.318 450.405 620.392 450.405 608.122C450.405 595.787 458.453 588.927 468.611 588.927C478.769 588.927 486.817 595.787 486.817 608.122C486.817 620.392 478.769 627.318 468.611 627.318ZM468.611 621.051C474.547 620.985 479.297 616.895 479.297 608.122C479.297 599.283 474.547 595.26 468.611 595.194C462.674 595.128 457.925 599.283 457.925 608.122C457.925 616.895 462.674 621.117 468.611 621.051ZM492.644 584.244V576.79H500.098V584.244H492.644ZM492.71 626.262V589.983H499.966V626.262H492.71ZM508.109 626.262V589.983H515.233V595.194H515.365C517.212 592.225 520.51 588.927 526.381 588.927C534.296 588.927 539.178 594.6 539.178 603.373V626.262H531.922V603.967C531.922 597.7 528.69 595.392 524.468 595.392C519.389 595.392 515.365 598.954 515.365 605.814V626.262H508.109ZM566.278 596.315H556.449V616.104C556.449 618.545 557.967 619.93 560.143 619.93H566.278V626.262H559.484C552.756 626.262 549.194 623.36 549.194 616.566V596.315H543.257V589.983H549.194V580.088H556.449V589.983H566.278V596.315ZM603.564 627.318C593.406 627.318 585.358 620.392 585.358 608.122C585.358 595.787 593.406 588.927 603.564 588.927C613.722 588.927 621.77 595.787 621.77 608.122C621.77 620.392 613.722 627.318 603.564 627.318ZM603.564 621.051C609.501 620.985 614.25 616.895 614.25 608.122C614.25 599.283 609.501 595.26 603.564 595.194C597.627 595.128 592.878 599.283 592.878 608.122C592.878 616.895 597.627 621.117 603.564 621.051ZM638.758 581.078C636.911 581.078 635.591 582.793 635.591 585.629V589.983H642.649V596.315H635.591V626.262H628.335V596.315H624.18V589.983H628.335V585.761C628.335 579.165 632.227 574.745 638.89 574.745H645.288V581.078H638.758ZM678.926 627.318C670.483 627.318 664.283 621.777 663.821 614.257H671.407C671.802 618.215 674.705 621.051 678.926 621.051C683.676 621.051 686.842 618.676 686.842 615.576C686.842 612.08 684.929 610.629 678.662 610.629H676.684C669.889 610.629 664.48 606.869 664.48 600.339C664.48 594.732 669.362 588.927 679.19 588.927C687.765 588.927 693.174 594.402 693.702 601.724H686.116C685.786 597.568 683.346 595.194 679.19 595.194C674.507 595.194 672 597.371 672 600.339C672 603.175 673.254 604.231 679.52 604.297H680.905C689.085 604.297 694.362 608.848 694.362 615.576C694.362 621.447 689.085 627.318 678.926 627.318ZM731.92 619.93H734.954V626.262H730.865C726.247 626.262 723.807 623.69 723.609 619.996C721.828 625.075 717.276 627.45 711.933 627.45C704.744 627.45 698.609 623.624 698.609 615.246C698.609 607.265 704.414 603.769 713.055 603.769H715.957C721.366 603.769 723.015 602.318 723.015 599.943C723.015 597.041 720.113 595.194 715.891 595.194C710.944 595.194 707.712 597.634 707.25 601.724H699.994C700.522 594.204 705.337 588.927 715.891 588.927C726.775 588.927 730.469 594.534 730.469 602.186V618.149C730.469 619.336 730.931 619.93 731.92 619.93ZM723.213 609.376V605.22H723.147C722.487 608.32 719.321 610.101 714.242 610.101H713.187C707.91 610.101 706.195 612.41 706.195 615.246C706.195 618.215 708.174 621.117 713.121 621.117C718.794 621.117 723.213 617.555 723.213 609.376ZM739.494 626.262V573.492H746.75V626.262H739.494ZM787.739 604.824V610.695H760.365C761.222 617.159 765.18 621.051 770.589 621.051C774.81 621.051 778.24 618.676 779.494 615.115H787.409C785.892 622.173 779.362 627.318 770.589 627.318C759.903 627.318 752.713 619.666 752.713 608.122C752.713 596.117 760.035 588.927 770.589 588.927C780.483 588.927 787.739 595.721 787.739 604.824ZM770.589 595.194C765.114 595.194 761.354 599.086 760.43 604.231H780.417C779.626 598.888 775.932 595.194 770.589 595.194ZM841.622 619.93H844.656V626.262H840.566C835.949 626.262 833.508 623.69 833.311 619.996C831.53 625.075 826.978 627.45 821.635 627.45C814.445 627.45 808.311 623.624 808.311 615.246C808.311 607.265 814.115 603.769 822.757 603.769H825.659C831.068 603.769 832.717 602.318 832.717 599.943C832.717 597.041 829.815 595.194 825.593 595.194C820.646 595.194 817.414 597.634 816.952 601.724H809.696C810.224 594.204 815.039 588.927 825.593 588.927C836.477 588.927 840.171 594.534 840.171 602.186V618.149C840.171 619.336 840.632 619.93 841.622 619.93ZM832.915 609.376V605.22H832.849C832.189 608.32 829.023 610.101 823.944 610.101H822.888C817.611 610.101 815.896 612.41 815.896 615.246C815.896 618.215 817.875 621.117 822.822 621.117C828.495 621.117 832.915 617.555 832.915 609.376ZM864.967 627.318C854.083 627.318 846.761 619.666 846.761 608.056C846.761 596.777 853.555 588.927 864.967 588.927C875.389 588.927 881.128 595.655 881.919 603.835H874.4C874.07 599.217 870.772 595.194 864.967 595.194C858.371 595.194 854.281 600.537 854.281 608.056C854.281 616.038 858.964 621.051 864.967 621.051C870.706 621.051 873.872 616.698 874.4 613.136H881.919C880.93 620.589 875.059 627.318 864.967 627.318ZM903.617 627.318C892.733 627.318 885.411 619.666 885.411 608.056C885.411 596.777 892.205 588.927 903.617 588.927C914.039 588.927 919.778 595.655 920.569 603.835H913.05C912.72 599.217 909.422 595.194 903.617 595.194C897.021 595.194 892.931 600.537 892.931 608.056C892.931 616.038 897.614 621.051 903.617 621.051C909.356 621.051 912.522 616.698 913.05 613.136H920.569C919.58 620.589 913.709 627.318 903.617 627.318ZM959.088 604.824V610.695H931.713C932.571 617.159 936.528 621.051 941.937 621.051C946.159 621.051 949.589 618.676 950.842 615.115H958.758C957.241 622.173 950.71 627.318 941.937 627.318C931.251 627.318 924.061 619.666 924.061 608.122C924.061 596.117 931.383 588.927 941.937 588.927C951.832 588.927 959.088 595.721 959.088 604.824ZM941.937 595.194C936.462 595.194 932.702 599.086 931.779 604.231H951.766C950.974 598.888 947.28 595.194 941.937 595.194ZM978.142 627.318C969.699 627.318 963.498 621.777 963.037 614.257H970.622C971.018 618.215 973.92 621.051 978.142 621.051C982.891 621.051 986.058 618.676 986.058 615.576C986.058 612.08 984.145 610.629 977.878 610.629H975.899C969.105 610.629 963.696 606.869 963.696 600.339C963.696 594.732 968.577 588.927 978.406 588.927C986.981 588.927 992.39 594.402 992.918 601.724H985.332C985.002 597.568 982.562 595.194 978.406 595.194C973.723 595.194 971.216 597.371 971.216 600.339C971.216 603.175 972.469 604.231 978.736 604.297H980.121C988.3 604.297 993.577 608.848 993.577 615.576C993.577 621.447 988.3 627.318 978.142 627.318ZM1012.8 627.318C1004.35 627.318 998.154 621.777 997.693 614.257H1005.28C1005.67 618.215 1008.58 621.051 1012.8 621.051C1017.55 621.051 1020.71 618.676 1020.71 615.576C1020.71 612.08 1018.8 610.629 1012.53 610.629H1010.56C1003.76 610.629 998.352 606.869 998.352 600.339C998.352 594.732 1003.23 588.927 1013.06 588.927C1021.64 588.927 1027.05 594.402 1027.57 601.724H1019.99C1019.66 597.568 1017.22 595.194 1013.06 595.194C1008.38 595.194 1005.87 597.371 1005.87 600.339C1005.87 603.175 1007.13 604.231 1013.39 604.297H1014.78C1022.96 604.297 1028.23 608.848 1028.23 615.576C1028.23 621.447 1022.96 627.318 1012.8 627.318ZM1090.99 588.927C1098.38 588.927 1103.06 594.6 1103.06 603.373V626.262H1095.81V603.967C1095.81 597.964 1093.1 595.392 1089.21 595.392C1084.59 595.392 1080.57 598.888 1080.57 605.748V626.262H1073.31V603.967C1073.31 597.964 1070.54 595.392 1066.65 595.392C1062.03 595.392 1058.14 598.954 1058.14 605.814V626.262H1050.88V589.983H1058.01V595.392H1058.14C1059.86 592.423 1063.02 588.927 1068.5 588.927C1073.97 588.927 1078 591.83 1079.71 597.107L1079.51 595.458H1079.71C1081.95 591.764 1085.32 588.927 1090.99 588.927ZM1142.32 619.93H1145.35V626.262H1141.26C1136.65 626.262 1134.21 623.69 1134.01 619.996C1132.23 625.075 1127.68 627.45 1122.33 627.45C1115.14 627.45 1109.01 623.624 1109.01 615.246C1109.01 607.265 1114.81 603.769 1123.45 603.769H1126.36C1131.77 603.769 1133.41 602.318 1133.41 599.943C1133.41 597.041 1130.51 595.194 1126.29 595.194C1121.34 595.194 1118.11 597.634 1117.65 601.724H1110.39C1110.92 594.204 1115.74 588.927 1126.29 588.927C1137.17 588.927 1140.87 594.534 1140.87 602.186V618.149C1140.87 619.336 1141.33 619.93 1142.32 619.93ZM1133.61 609.376V605.22H1133.55C1132.89 608.32 1129.72 610.101 1124.64 610.101H1123.59C1118.31 610.101 1116.59 612.41 1116.59 615.246C1116.59 618.215 1118.57 621.117 1123.52 621.117C1129.19 621.117 1133.61 617.555 1133.61 609.376ZM1149.89 626.262V589.983H1157.02V595.194H1157.15C1159 592.225 1162.29 588.927 1168.16 588.927C1176.08 588.927 1180.96 594.6 1180.96 603.373V626.262H1173.71V603.967C1173.71 597.7 1170.47 595.392 1166.25 595.392C1161.17 595.392 1157.15 598.954 1157.15 605.814V626.262H1149.89ZM1220.2 619.93H1223.23V626.262H1219.14C1214.53 626.262 1212.09 623.69 1211.89 619.996C1210.11 625.075 1205.56 627.45 1200.21 627.45C1193.02 627.45 1186.89 623.624 1186.89 615.246C1186.89 607.265 1192.69 603.769 1201.33 603.769H1204.24C1209.64 603.769 1211.29 602.318 1211.29 599.943C1211.29 597.041 1208.39 595.194 1204.17 595.194C1199.22 595.194 1195.99 597.634 1195.53 601.724H1188.27C1188.8 594.204 1193.62 588.927 1204.17 588.927C1215.05 588.927 1218.75 594.534 1218.75 602.186V618.149C1218.75 619.336 1219.21 619.93 1220.2 619.93ZM1211.49 609.376V605.22H1211.43C1210.77 608.32 1207.6 610.101 1202.52 610.101H1201.47C1196.19 610.101 1194.47 612.41 1194.47 615.246C1194.47 618.215 1196.45 621.117 1201.4 621.117C1207.07 621.117 1211.49 617.555 1211.49 609.376ZM1247.63 619.6C1255.02 619.6 1258.58 622.964 1258.58 628.373C1258.58 633.848 1255.02 637.476 1247.5 637.476H1235.29C1228.7 637.476 1225.2 634.705 1225.2 630.682C1225.2 627.515 1226.92 625.075 1231.14 624.085C1226.85 623.162 1224.87 620.194 1224.87 617.159C1224.87 614.059 1227.05 611.289 1231.33 610.563C1228.63 608.386 1227.05 605.22 1227.05 601.394C1227.05 593.743 1233.51 588.927 1241.76 588.927C1245.78 588.927 1249.34 590.049 1251.98 592.094H1252.05C1251.85 590.642 1253.83 589.059 1255.54 589.059H1258.25V595.26H1256.93C1256.33 595.26 1255.54 595.194 1254.69 595.062C1255.81 596.843 1256.47 598.954 1256.47 601.394C1256.47 609.046 1249.94 613.861 1241.76 613.861H1234.3C1232.39 613.861 1231.27 614.785 1231.27 616.302C1231.27 618.347 1233.18 619.6 1236.81 619.6H1247.63ZM1241.76 595.194C1237.67 595.128 1234.57 597.371 1234.57 601.394C1234.57 605.484 1237.67 607.661 1241.76 607.595C1245.78 607.529 1248.88 605.484 1248.88 601.394C1248.88 597.371 1245.78 595.26 1241.76 595.194ZM1233.05 610.365H1233.51H1233.05ZM1247.63 631.143C1249.94 631.143 1250.99 630.352 1250.99 628.373C1250.99 626.46 1249.87 625.932 1247.5 625.932H1235.29C1233.18 625.932 1231.86 626.724 1231.86 628.373C1231.86 630.418 1233.12 631.143 1235.23 631.143H1247.63ZM1295.99 604.824V610.695H1268.61C1269.47 617.159 1273.43 621.051 1278.84 621.051C1283.06 621.051 1286.49 618.676 1287.74 615.115H1295.66C1294.14 622.173 1287.61 627.318 1278.84 627.318C1268.15 627.318 1260.96 619.666 1260.96 608.122C1260.96 596.117 1268.28 588.927 1278.84 588.927C1288.73 588.927 1295.99 595.721 1295.99 604.824ZM1278.84 595.194C1273.36 595.194 1269.6 599.086 1268.68 604.231H1288.67C1287.87 598.888 1284.18 595.194 1278.84 595.194ZM1301.98 626.262V589.983H1309.1V595.59H1309.24C1311.15 592.489 1314.45 588.927 1319.79 588.927H1322.89V595.194H1319C1313.06 595.194 1309.24 598.822 1309.24 605.814V626.262H1301.98Z" fill="white"/>
</g>
<path d="M242.404 626.414V591.937C242.404 582.708 242.404 578.094 240.422 574.656C239.125 572.405 237.257 570.534 235.01 569.235C231.578 567.25 226.971 567.25 217.757 567.25C208.543 567.25 203.936 567.25 200.504 569.235C198.256 570.534 196.389 572.405 195.091 574.656C193.11 578.094 193.11 582.708 193.11 591.937V626.414H242.404Z" fill="#0D50B1"/>
<path fill-rule="evenodd" clip-rule="evenodd" d="M155.962 527.75C147.18 527.75 139.411 524.036 133.957 518.2V547.5C133.957 584.741 133.957 603.361 145.508 614.93C154.805 624.244 168.664 626.06 193.11 626.414H242.404C266.85 626.06 280.708 624.244 290.006 614.93C301.556 603.361 301.556 584.741 301.556 547.5V518.211C296.103 524.041 288.338 527.75 279.562 527.75C264.066 527.75 251.093 515.99 249.551 500.547L248.832 493.359C250.67 511.772 236.234 527.75 217.76 527.75C199.41 527.75 185.044 511.988 186.652 493.732L185.972 500.547C184.43 515.99 171.457 527.75 155.962 527.75ZM242.404 591.938V626.414H193.11V591.938C193.11 582.708 193.11 578.094 195.091 574.656C196.389 572.405 198.256 570.534 200.504 569.235C203.936 567.25 208.543 567.25 217.757 567.25C226.971 567.25 231.578 567.25 235.01 569.235C237.258 570.534 239.125 572.405 240.422 574.656C242.404 578.094 242.404 582.708 242.404 591.938Z" fill="#298AE4"/>
<g filter="url(#filter4_d_11_14)">
<path d="M193.108 429H242.402L248.827 493.359C250.666 511.772 236.229 527.75 217.755 527.75C199.281 527.75 184.844 511.772 186.683 493.359L193.108 429Z" fill="white"/>
<path d="M132.284 462.094C134.039 453.302 134.917 448.905 136.702 445.342C140.463 437.832 147.23 432.275 155.319 430.054C159.158 429 163.634 429 172.586 429H193.115L185.972 500.547C184.43 515.99 171.457 527.75 155.962 527.75C136.931 527.75 122.656 510.31 126.389 491.617L132.284 462.094Z" fill="#38B7FF"/>
<path d="M303.235 462.094C301.48 453.302 300.601 448.905 298.817 445.342C295.056 437.832 288.289 432.275 280.199 430.054C276.36 429 271.885 429 262.933 429H242.404L249.546 500.547C251.088 515.99 264.062 527.75 279.557 527.75C298.588 527.75 312.863 510.31 309.13 491.617L303.235 462.094Z" fill="#38B7FF"/>
</g>
<g filter="url(#filter5_d_11_14)">
<g filter="url(#filter6_d_11_14)">
<path d="M251.586 598.588C251.586 585.435 251.586 578.859 255.665 574.773C259.744 570.688 266.31 570.688 279.44 570.688H316.579C329.709 570.688 336.275 570.688 340.354 574.773C344.433 578.859 344.433 585.435 344.433 598.588C344.433 611.74 344.433 618.316 340.354 622.402C336.275 626.488 329.709 626.488 316.579 626.488H279.44C266.31 626.488 259.744 626.488 255.665 622.402C251.586 618.316 251.586 611.74 251.586 598.588Z" fill="white"/>
</g>
<path d="M298.009 607.888C303.137 607.888 307.294 603.724 307.294 598.588C307.294 593.451 303.137 589.288 298.009 589.288C292.881 589.288 288.725 593.451 288.725 598.588C288.725 603.724 292.881 607.888 298.009 607.888Z" fill="#2989E2"/>
<path d="M273.637 561.388C273.637 547.905 284.549 536.975 298.01 536.975C311.47 536.975 322.382 547.905 322.382 561.388V570.704C325.016 570.729 327.319 570.79 329.346 570.941V561.388C329.346 544.053 315.316 530 298.01 530C280.703 530 266.674 544.053 266.674 561.388V570.941C268.7 570.79 271.003 570.729 273.637 570.704V561.388Z" fill="white"/>
<rect x="296" y="602" width="5" height="12" rx="2.5" fill="#2989E2"/>
</g>
<path d="M419.008 716.217C411.928 716.217 407.118 711.305 407.118 703.785C407.118 696.502 411.589 691.421 419.008 691.421C425.884 691.421 429.678 695.791 430.22 701.042H426.223C425.952 697.688 423.445 694.741 419.008 694.741C414.13 694.741 411.115 698.501 411.115 703.785C411.115 709.375 414.57 712.897 419.008 712.897C423.377 712.897 425.85 709.679 426.223 707.037H430.22C429.542 711.915 425.681 716.217 419.008 716.217ZM441.439 716.217C436.223 716.217 432.09 712.66 432.09 706.36C432.09 700.025 436.223 696.502 441.439 696.502C446.656 696.502 450.788 700.025 450.788 706.36C450.788 712.66 446.656 716.217 441.439 716.217ZM441.439 712.999C444.488 712.965 446.927 710.865 446.927 706.36C446.927 701.821 444.488 699.754 441.439 699.72C438.391 699.687 435.952 701.821 435.952 706.36C435.952 710.865 438.391 713.033 441.439 712.999ZM474.478 696.502C478.272 696.502 480.677 699.416 480.677 703.921V715.675H476.951V704.226C476.951 701.143 475.562 699.822 473.564 699.822C471.192 699.822 469.126 701.617 469.126 705.14V715.675H465.4V704.226C465.4 701.143 463.977 699.822 461.979 699.822C459.608 699.822 457.609 701.651 457.609 705.174V715.675H453.883V697.044H457.541V699.822H457.609C458.49 698.298 460.116 696.502 462.927 696.502C465.739 696.502 467.805 697.993 468.686 700.703L468.584 699.856H468.686C469.838 697.959 471.565 696.502 474.478 696.502ZM505.309 696.502C509.103 696.502 511.508 699.416 511.508 703.921V715.675H507.782V704.226C507.782 701.143 506.393 699.822 504.394 699.822C502.023 699.822 499.957 701.617 499.957 705.14V715.675H496.231V704.226C496.231 701.143 494.808 699.822 492.809 699.822C490.438 699.822 488.44 701.651 488.44 705.174V715.675H484.713V697.044H488.372V699.822H488.44C489.32 698.298 490.946 696.502 493.758 696.502C496.569 696.502 498.636 697.993 499.516 700.703L499.415 699.856H499.516C500.668 697.959 502.396 696.502 505.309 696.502ZM521.811 716.217C517.847 716.217 515.442 713.304 515.442 708.799V697.044H519.169V708.494C519.169 711.712 520.761 712.897 522.793 712.897C525.3 712.897 527.298 711.068 527.298 707.545V697.044H531.024V715.675H527.366V712.999H527.298C526.384 714.523 524.724 716.217 521.811 716.217ZM535.194 715.675V697.044H538.852V699.72H538.92C539.868 698.196 541.562 696.502 544.577 696.502C548.641 696.502 551.148 699.416 551.148 703.921V715.675H547.422V704.226C547.422 701.008 545.762 699.822 543.594 699.822C540.986 699.822 538.92 701.651 538.92 705.174V715.675H535.194ZM555.072 694.097V690.27H558.9V694.097H555.072ZM555.106 715.675V697.044H558.832V715.675H555.106ZM572.905 700.296H567.858V710.458C567.858 711.712 568.637 712.423 569.755 712.423H572.905V715.675H569.416C565.961 715.675 564.132 714.185 564.132 710.696V700.296H561.083V697.044H564.132V691.963H567.858V697.044H572.905V700.296ZM587.649 697.044H591.781L582.602 719.333C582.127 720.587 580.908 721.434 579.553 721.434H573.998V718.182H579.282L580.739 714.659L573.523 697.044H577.622L582.636 710.458L587.649 697.044Z" fill="white"/>
<path d="M632.659 727C621.129 727 615.363 727 611.781 723.412C608.199 719.824 608.199 714.049 608.199 702.5C608.199 690.951 608.199 685.176 611.781 681.588C615.363 678 621.129 678 632.659 678C644.189 678 649.955 678 653.537 681.588C657.119 685.176 657.119 690.951 657.119 702.5C657.119 714.049 657.119 719.824 653.537 723.412C649.955 727 644.189 727 632.659 727Z" fill="#38B7FF"/>
<path d="M642.518 695.076C643.234 695.793 643.234 696.957 642.518 697.674L630.288 709.924C629.571 710.642 628.41 710.642 627.693 709.924L622.801 705.024C622.085 704.307 622.085 703.143 622.801 702.426C623.518 701.708 624.679 701.708 625.396 702.426L628.991 706.026L639.923 695.076C640.64 694.358 641.801 694.358 642.518 695.076Z" fill="white"/>
<path d="M699.752 715.675V691.963H716.248V695.418H703.613V702.193H714.927V705.648H703.613V712.22H716.282V715.675H699.752ZM719.068 715.675V697.044H722.726V699.72H722.794C723.743 698.196 725.436 696.502 728.451 696.502C732.516 696.502 735.023 699.416 735.023 703.921V715.675H731.296V704.226C731.296 701.008 729.637 699.822 727.469 699.822C724.86 699.822 722.794 701.651 722.794 705.174V715.675H719.068ZM748.939 700.296H743.892V710.458C743.892 711.712 744.671 712.423 745.789 712.423H748.939V715.675H745.45C741.995 715.675 740.166 714.185 740.166 710.696V700.296H737.117V697.044H740.166V691.963H743.892V697.044H748.939V700.296ZM768.091 704.666V707.681H754.033C754.474 711 756.506 712.999 759.284 712.999C761.452 712.999 763.213 711.78 763.857 709.95H767.922C767.142 713.575 763.789 716.217 759.284 716.217C753.796 716.217 750.104 712.288 750.104 706.36C750.104 700.195 753.864 696.502 759.284 696.502C764.365 696.502 768.091 699.991 768.091 704.666ZM759.284 699.72C756.472 699.72 754.541 701.719 754.067 704.361H764.331C763.924 701.617 762.027 699.72 759.284 699.72ZM771.169 715.675V697.044H774.827V699.924H774.895C775.877 698.332 777.571 696.502 780.315 696.502H781.907V699.72H779.908C776.86 699.72 774.895 701.584 774.895 705.174V715.675H771.169ZM788.061 697.959C788.061 698.636 788.061 699.178 787.993 699.924H788.061C789.517 697.654 791.821 696.502 794.429 696.502C799.002 696.502 802.999 699.924 802.999 706.258C802.999 712.728 799.002 716.217 794.429 716.217C791.719 716.217 789.416 715.031 788.061 712.796H787.993C788.061 713.575 788.061 714.151 788.061 714.862V721.434H784.335V697.044H788.061V697.959ZM793.481 712.999C796.868 713.033 799.104 710.289 799.104 706.258C799.104 702.329 796.868 699.687 793.481 699.72C790.026 699.754 788.027 702.634 788.027 706.224C788.027 710.018 790.026 712.965 793.481 712.999ZM806.035 715.675V697.044H809.694V699.924H809.761C810.744 698.332 812.437 696.502 815.181 696.502H816.773V699.72H814.775C811.726 699.72 809.761 701.584 809.761 705.174V715.675H806.035ZM819.099 694.097V690.27H822.927V694.097H819.099ZM819.133 715.675V697.044H822.859V715.675H819.133ZM833.748 716.217C829.412 716.217 826.228 713.372 825.991 709.51H829.886C830.09 711.542 831.58 712.999 833.748 712.999C836.187 712.999 837.813 711.78 837.813 710.187C837.813 708.392 836.831 707.647 833.613 707.647H832.596C829.107 707.647 826.33 705.716 826.33 702.363C826.33 699.483 828.836 696.502 833.884 696.502C838.287 696.502 841.065 699.314 841.336 703.074H837.44C837.271 700.94 836.018 699.72 833.884 699.72C831.479 699.72 830.191 700.838 830.191 702.363C830.191 703.819 830.835 704.361 834.053 704.395H834.764C838.965 704.395 841.675 706.732 841.675 710.187C841.675 713.202 838.965 716.217 833.748 716.217ZM861.707 704.666V707.681H847.65C848.09 711 850.122 712.999 852.9 712.999C855.068 712.999 856.829 711.78 857.473 709.95H861.538C860.759 713.575 857.405 716.217 852.9 716.217C847.412 716.217 843.72 712.288 843.72 706.36C843.72 700.195 847.48 696.502 852.9 696.502C857.981 696.502 861.707 699.991 861.707 704.666ZM852.9 699.72C850.089 699.72 848.158 701.719 847.683 704.361H857.947C857.541 701.617 855.644 699.72 852.9 699.72Z" fill="white"/>
<path d="M904.162 727C892.631 727 886.866 727 883.284 723.412C879.702 719.824 879.702 714.049 879.702 702.5C879.702 690.951 879.702 685.176 883.284 681.588C886.866 678 892.631 678 904.162 678C915.692 678 921.458 678 925.04 681.588C928.622 685.176 928.622 690.951 928.622 702.5C928.622 714.049 928.622 719.824 925.04 723.412C921.458 727 915.692 727 904.162 727Z" fill="#38B7FF"/>
<path d="M914.02 695.076C914.737 695.793 914.737 696.957 914.02 697.674L901.791 709.924C901.074 710.642 899.913 710.642 899.196 709.924L894.304 705.024C893.588 704.307 893.588 703.143 894.304 702.426C895.021 701.708 896.182 701.708 896.899 702.426L900.494 706.026L911.426 695.076C912.143 694.358 913.304 694.358 914.02 695.076Z" fill="white"/>
<path d="M2330.44 328H2240.31C2240.38 337.01 2240.84 346.782 2244.07 350.022C2247.85 353.8 2253.92 353.8 2266.06 353.8H2304.7C2316.84 353.8 2322.91 353.8 2326.68 350.022C2329.92 346.782 2330.38 337.01 2330.44 328Z" fill="#38B7FF"/>
<path d="M2330.44 328H2240.31C2240.38 337.01 2240.84 346.782 2244.07 350.022C2247.85 353.8 2253.92 353.8 2266.06 353.8H2304.7C2316.84 353.8 2322.91 353.8 2326.68 350.022C2329.92 346.782 2330.38 337.01 2330.44 328Z" fill="url(#paint2_linear_11_14)"/>
<path d="M2253.54 244.35C2235.76 244.35 2221.34 258.789 2221.34 276.6C2221.34 289.824 2229.29 301.19 2240.66 306.167V328.2H2330.81V306.167C2342.19 301.19 2350.13 289.824 2350.13 276.6C2350.13 258.789 2335.72 244.35 2317.94 244.35C2316.32 244.35 2314.74 244.469 2313.19 244.698C2309.31 233.243 2298.48 225 2285.74 225C2272.99 225 2262.17 233.243 2258.29 244.698C2256.74 244.469 2255.15 244.35 2253.54 244.35Z" fill="white"/>
<path d="M126 288C126 315.062 147.938 337 175 337H823.435C841.471 337 858.048 327.093 866.59 311.209L960.167 137.209C977.723 104.564 954.077 65 917.011 65H175C147.938 65 126 86.938 126 114V288Z" fill="url(#paint3_linear_11_14)"/>
<path d="M126 288C126 315.062 147.938 337 175 337H823.435C841.471 337 858.048 327.093 866.59 311.209L960.167 137.209C977.723 104.564 954.077 65 917.011 65H175C147.938 65 126 86.938 126 114V288Z" stroke="white"/>
<path d="M234.24 138.719C232.175 140.321 232.041 142.524 233.707 144.726C234.907 146.261 234.907 146.929 234.04 158.608L233.108 170.822L229.909 174.96C223.379 183.303 220.181 191.045 218.981 201.19C217.382 215.006 221.447 228.821 230.242 239.834L232.441 242.503L231.442 246.374C230.909 248.51 230.509 250.312 230.642 250.379C230.775 250.446 236.706 251.914 243.835 253.649C250.965 255.385 263.092 258.254 270.688 260.123C278.351 261.992 284.881 263.327 285.214 263.127C285.547 262.86 285.814 262.259 285.814 261.658C285.814 261.058 286.147 259.523 286.547 258.121C287.213 255.918 287.879 255.385 291.877 253.382C294.409 252.181 296.475 250.913 296.475 250.579C296.475 250.245 295.409 248.71 294.01 247.242C291.611 244.572 291.611 244.506 292.944 243.504C298.674 239.099 300.473 237.431 303.005 234.494C308.602 227.887 313.133 215.673 313.133 207.063C313.133 202.124 311.201 194.048 308.869 189.043C305.87 182.702 302.006 177.763 296.608 173.425C294.143 171.423 292.211 169.487 292.344 169.087C292.477 168.686 293.477 167.418 294.543 166.351C295.609 165.216 296.475 163.948 296.475 163.547C296.475 162.546 287.013 158.408 281.483 156.94C275.019 155.338 265.025 155.338 258.161 157.007C255.23 157.741 250.099 159.676 246.767 161.345L240.637 164.415L240.237 161.412C239.971 159.676 239.638 155.472 239.371 152.001C239.038 146.595 239.171 145.527 240.104 144.726C241.77 143.324 241.437 140.321 239.438 138.719C238.438 137.918 237.305 137.318 236.839 137.318C236.373 137.318 235.24 137.918 234.24 138.719ZM273.82 164.682C276.952 165.082 280.55 165.683 281.816 166.084C285.148 167.085 290.478 169.487 290.478 170.021C290.478 170.555 284.814 177.496 278.817 184.371C276.885 186.573 273.687 190.378 271.688 192.78L268.09 197.252L265.491 195.917C262.359 194.315 257.495 194.182 254.696 195.584C249.966 198.053 246.567 204.394 247.5 208.932C247.767 210.133 248.7 212.336 249.566 213.871C252.431 218.81 260.027 221.079 265.224 218.476C266.424 217.875 267.623 217.408 267.89 217.408C268.689 217.408 290.478 243.304 290.478 244.172C290.478 244.839 282.615 247.976 279.151 248.777C274.753 249.711 264.092 249.578 259.494 248.443C240.171 243.838 226.111 224.817 227.377 205.061C228.71 184.037 243.569 167.752 264.158 164.749C266.357 164.415 268.156 164.148 268.156 164.081C268.156 164.081 270.755 164.348 273.82 164.682ZM298.541 181.234C300.073 182.969 302.006 185.439 302.805 186.707C305.004 190.244 307.603 197.786 308.136 202.525L308.602 206.729H306.537C304.671 206.729 304.471 206.529 304.471 204.527C304.404 197.586 300.14 188.442 294.076 182.369C289.812 178.097 289.679 177.897 290.811 176.696C291.944 175.427 292.011 175.427 293.876 176.696C294.876 177.43 297.008 179.499 298.541 181.234ZM263.425 205.595C264.491 208.465 263.026 210.734 260.16 210.734C257.095 210.734 255.23 208.198 256.429 205.662C257.895 202.391 262.293 202.325 263.425 205.595Z" fill="white"/>
<path d="M311.998 133.639C310.158 144.463 310.733 143.657 302.57 145.269C298.431 146.191 295.327 147.112 295.672 147.342C296.017 147.688 299.236 148.494 302.915 149.3L309.583 150.567L311.308 158.052C313.262 165.998 314.182 165.998 315.447 157.937C316.481 151.258 317.401 150.221 323.724 149.3C332.462 148.033 332.807 146.997 324.874 145.385C320.965 144.578 317.286 143.312 316.826 142.621C316.366 142.045 315.676 138.936 315.332 135.942C314.297 129.032 312.917 127.996 311.998 133.639Z" fill="white"/>
<path d="M396.239 207.162C401.276 209.025 404.864 212.82 404.864 218.547C404.864 228.138 397.619 233.175 388.925 233.175H366.362V184.875H387.338C394.997 184.875 401.414 189.429 401.414 197.916C401.414 202.194 399.344 205.299 396.239 207.162ZM385.544 191.913H374.159V204.195H385.958C390.305 204.195 393.272 201.573 393.272 197.916C393.272 194.397 390.167 191.913 385.544 191.913ZM387.131 226.137C392.858 226.137 396.722 223.239 396.722 218.547C396.722 213.993 392.72 211.233 387.338 211.233H374.159V226.137H387.131ZM411.297 189.222V181.425H419.094V189.222H411.297ZM411.366 233.175V195.225H418.956V233.175H411.366ZM448.243 226.206C455.971 226.206 459.697 229.725 459.697 235.383C459.697 241.11 455.971 244.905 448.105 244.905H435.34C428.44 244.905 424.783 242.007 424.783 237.798C424.783 234.486 426.577 231.933 430.993 230.898C426.508 229.932 424.438 226.827 424.438 223.653C424.438 220.41 426.715 217.512 431.2 216.753C428.371 214.476 426.715 211.164 426.715 207.162C426.715 199.158 433.477 194.121 442.102 194.121C446.311 194.121 450.037 195.294 452.797 197.433H452.866C452.659 195.915 454.729 194.259 456.523 194.259H459.352V200.745H457.972C457.351 200.745 456.523 200.676 455.626 200.538C456.799 202.401 457.489 204.609 457.489 207.162C457.489 215.166 450.658 220.203 442.102 220.203H434.305C432.304 220.203 431.131 221.169 431.131 222.756C431.131 224.895 433.132 226.206 436.927 226.206H448.243ZM442.102 200.676C437.824 200.607 434.581 202.953 434.581 207.162C434.581 211.44 437.824 213.717 442.102 213.648C446.311 213.579 449.554 211.44 449.554 207.162C449.554 202.953 446.311 200.745 442.102 200.676ZM432.994 216.546H433.477H432.994ZM448.243 238.281C450.658 238.281 451.762 237.453 451.762 235.383C451.762 233.382 450.589 232.83 448.105 232.83H435.34C433.132 232.83 431.752 233.658 431.752 235.383C431.752 237.522 433.063 238.281 435.271 238.281H448.243ZM495.023 207.162C500.06 209.025 503.648 212.82 503.648 218.547C503.648 228.138 496.403 233.175 487.709 233.175H465.146V184.875H486.122C493.781 184.875 500.198 189.429 500.198 197.916C500.198 202.194 498.128 205.299 495.023 207.162ZM484.328 191.913H472.943V204.195H484.742C489.089 204.195 492.056 201.573 492.056 197.916C492.056 194.397 488.951 191.913 484.328 191.913ZM485.915 226.137C491.642 226.137 495.506 223.239 495.506 218.547C495.506 213.993 491.504 211.233 486.122 211.233H472.943V226.137H485.915ZM543.738 226.551H546.912V233.175H542.634C537.804 233.175 535.251 230.484 535.044 226.62C533.181 231.933 528.42 234.417 522.831 234.417C515.31 234.417 508.893 230.415 508.893 221.652C508.893 213.303 514.965 209.646 524.004 209.646H527.04C532.698 209.646 534.423 208.128 534.423 205.644C534.423 202.608 531.387 200.676 526.971 200.676C521.796 200.676 518.415 203.229 517.932 207.507H510.342C510.894 199.641 515.931 194.121 526.971 194.121C538.356 194.121 542.22 199.986 542.22 207.99V224.688C542.22 225.93 542.703 226.551 543.738 226.551ZM534.63 215.511V211.164H534.561C533.871 214.407 530.559 216.27 525.246 216.27H524.142C518.622 216.27 516.828 218.685 516.828 221.652C516.828 224.757 518.898 227.793 524.073 227.793C530.007 227.793 534.63 224.067 534.63 215.511ZM551.66 233.175V195.225H559.112V200.676H559.25C561.182 197.571 564.632 194.121 570.773 194.121C579.053 194.121 584.159 200.055 584.159 209.232V233.175H576.569V209.853C576.569 203.298 573.188 200.883 568.772 200.883C563.459 200.883 559.25 204.609 559.25 211.785V233.175H551.66ZM613.129 226.206C620.857 226.206 624.583 229.725 624.583 235.383C624.583 241.11 620.857 244.905 612.991 244.905H600.226C593.326 244.905 589.669 242.007 589.669 237.798C589.669 234.486 591.463 231.933 595.879 230.898C591.394 229.932 589.324 226.827 589.324 223.653C589.324 220.41 591.601 217.512 596.086 216.753C593.257 214.476 591.601 211.164 591.601 207.162C591.601 199.158 598.363 194.121 606.988 194.121C611.197 194.121 614.923 195.294 617.683 197.433H617.752C617.545 195.915 619.615 194.259 621.409 194.259H624.238V200.745H622.858C622.237 200.745 621.409 200.676 620.512 200.538C621.685 202.401 622.375 204.609 622.375 207.162C622.375 215.166 615.544 220.203 606.988 220.203H599.191C597.19 220.203 596.017 221.169 596.017 222.756C596.017 224.895 598.018 226.206 601.813 226.206H613.129ZM606.988 200.676C602.71 200.607 599.467 202.953 599.467 207.162C599.467 211.44 602.71 213.717 606.988 213.648C611.197 213.579 614.44 211.44 614.44 207.162C614.44 202.953 611.197 200.745 606.988 200.676ZM597.88 216.546H598.363H597.88ZM613.129 238.281C615.544 238.281 616.648 237.453 616.648 235.383C616.648 233.382 615.475 232.83 612.991 232.83H600.226C598.018 232.83 596.638 233.658 596.638 235.383C596.638 237.522 597.949 238.281 600.157 238.281H613.129ZM631.48 233.175V225.102H639.76V233.175H631.48ZM691.991 194.121C699.719 194.121 704.618 200.055 704.618 209.232V233.175H697.028V209.853C697.028 203.574 694.199 200.883 690.128 200.883C685.298 200.883 681.089 204.54 681.089 211.716V233.175H673.499V209.853C673.499 203.574 670.601 200.883 666.53 200.883C661.7 200.883 657.629 204.609 657.629 211.785V233.175H650.039V195.225H657.491V200.883H657.629C659.423 197.778 662.735 194.121 668.462 194.121C674.189 194.121 678.398 197.157 680.192 202.677L679.985 200.952H680.192C682.538 197.088 686.057 194.121 691.991 194.121ZM745.684 226.551H748.858V233.175H744.58C739.75 233.175 737.197 230.484 736.99 226.62C735.127 231.933 730.366 234.417 724.777 234.417C717.256 234.417 710.839 230.415 710.839 221.652C710.839 213.303 716.911 209.646 725.95 209.646H728.986C734.644 209.646 736.369 208.128 736.369 205.644C736.369 202.608 733.333 200.676 728.917 200.676C723.742 200.676 720.361 203.229 719.878 207.507H712.288C712.84 199.641 717.877 194.121 728.917 194.121C740.302 194.121 744.166 199.986 744.166 207.99V224.688C744.166 225.93 744.649 226.551 745.684 226.551ZM736.576 215.511V211.164H736.507C735.817 214.407 732.505 216.27 727.192 216.27H726.088C720.568 216.27 718.774 218.685 718.774 221.652C718.774 224.757 720.844 227.793 726.019 227.793C731.953 227.793 736.576 224.067 736.576 215.511Z" fill="white"/>
<path d="M2313.42 771.998V829H2301.37V783.437H2301.03L2287.98 791.62V780.932L2302.09 771.998H2313.42ZM2329.22 829L2352.85 782.241V781.851H2325.33V771.998H2365.32V781.99L2341.66 829H2329.22Z" fill="white"/>
<rect x="2022.5" y="778.5" width="47" height="47" rx="23.5" stroke="white" stroke-width="13"/>
<rect x="2084.5" y="778.5" width="47" height="47" rx="23.5" stroke="white" stroke-width="13"/>
<rect x="2146.5" y="778.5" width="47" height="47" rx="23.5" stroke="white" stroke-width="13"/>
<rect x="2208.5" y="778.5" width="47" height="47" rx="23.5" stroke="white" stroke-width="13"/>
<rect x="2125" y="755" width="13" height="54" rx="6.5" fill="white"/>
</g>
<defs>
<filter id="filter0_d_11_14" x="2204.3" y="704" width="129.955" height="128.901" filterUnits="userSpaceOnUse" color-interpolation-filters="sRGB">
<feFlood flood-opacity="0" result="BackgroundImageFix"/>
<feColorMatrix in="SourceAlpha" type="matrix" values="0 0 0 0 0 0 0 0 0 0 0 0 0 0 0 0 0 0 127 0" result="hardAlpha"/>
<feOffset dy="4"/>
<feGaussianBlur stdDeviation="22.5"/>
<feComposite in2="hardAlpha" operator="out"/>
<feColorMatrix type="matrix" values="0 0 0 0 0 0 0 0 0 0 0 0 0 0 0 0 0 0 1 0"/>
<feBlend mode="normal" in2="BackgroundImageFix" result="effect1_dropShadow_11_14"/>
<feBlend mode="normal" in="SourceGraphic" in2="effect1_dropShadow_11_14" result="shape"/>
</filter>
<filter id="filter1_d_11_14" x="1727.66" y="296.702" width="390.568" height="401.48" filterUnits="userSpaceOnUse" color-interpolation-filters="sRGB">
<feFlood flood-opacity="0" result="BackgroundImageFix"/>
<feColorMatrix in="SourceAlpha" type="matrix" values="0 0 0 0 0 0 0 0 0 0 0 0 0 0 0 0 0 0 127 0" result="hardAlpha"/>
<feOffset dy="5.10222"/>
<feGaussianBlur stdDeviation="28.7"/>
<feComposite in2="hardAlpha" operator="out"/>
<feColorMatrix type="matrix" values="0 0 0 0 0 0 0 0 0 0 0 0 0 0 0 0 0 0 0.56 0"/>
<feBlend mode="normal" in2="BackgroundImageFix" result="effect1_dropShadow_11_14"/>
<feBlend mode="normal" in="SourceGraphic" in2="effect1_dropShadow_11_14" result="shape"/>
</filter>
<filter id="filter2_d_11_14" x="369.828" y="397.118" width="917.849" height="197.219" filterUnits="userSpaceOnUse" color-interpolation-filters="sRGB">
<feFlood flood-opacity="0" result="BackgroundImageFix"/>
<feColorMatrix in="SourceAlpha" type="matrix" values="0 0 0 0 0 0 0 0 0 0 0 0 0 0 0 0 0 0 127 0" result="hardAlpha"/>
<feOffset dy="4"/>
<feGaussianBlur stdDeviation="22.5"/>
<feComposite in2="hardAlpha" operator="out"/>
<feColorMatrix type="matrix" values="0 0 0 0 0 0 0 0 0 0 0 0 0 0 0 0 0 0 0.51 0"/>
<feBlend mode="normal" in2="BackgroundImageFix" result="effect1_dropShadow_11_14"/>
<feBlend mode="normal" in="SourceGraphic" in2="effect1_dropShadow_11_14" result="shape"/>
</filter>
<filter id="filter3_d_11_14" x="364.621" y="532.492" width="1003.27" height="153.984" filterUnits="userSpaceOnUse" color-interpolation-filters="sRGB">
<feFlood flood-opacity="0" result="BackgroundImageFix"/>
<feColorMatrix in="SourceAlpha" type="matrix" values="0 0 0 0 0 0 0 0 0 0 0 0 0 0 0 0 0 0 127 0" result="hardAlpha"/>
<feOffset dy="4"/>
<feGaussianBlur stdDeviation="22.5"/>
<feComposite in2="hardAlpha" operator="out"/>
<feColorMatrix type="matrix" values="0 0 0 0 0 0 0 0 0 0 0 0 0 0 0 0 0 0 0.51 0"/>
<feBlend mode="normal" in2="BackgroundImageFix" result="effect1_dropShadow_11_14"/>
<feBlend mode="normal" in="SourceGraphic" in2="effect1_dropShadow_11_14" result="shape"/>
</filter>
<filter id="filter4_d_11_14" x="109.893" y="417.1" width="215.733" height="130.55" filterUnits="userSpaceOnUse" color-interpolation-filters="sRGB">
<feFlood flood-opacity="0" result="BackgroundImageFix"/>
<feColorMatrix in="SourceAlpha" type="matrix" values="0 0 0 0 0 0 0 0 0 0 0 0 0 0 0 0 0 0 127 0" result="hardAlpha"/>
<feOffset dy="4"/>
<feGaussianBlur stdDeviation="7.95"/>
<feComposite in2="hardAlpha" operator="out"/>
<feColorMatrix type="matrix" values="0 0 0 0 0 0 0 0 0 0 0 0 0 0 0 0 0 0 0.25 0"/>
<feBlend mode="normal" in2="BackgroundImageFix" result="effect1_dropShadow_11_14"/>
<feBlend mode="normal" in="SourceGraphic" in2="effect1_dropShadow_11_14" result="shape"/>
</filter>
<filter id="filter5_d_11_14" x="243.286" y="525.7" width="109.447" height="113.088" filterUnits="userSpaceOnUse" color-interpolation-filters="sRGB">
<feFlood flood-opacity="0" result="BackgroundImageFix"/>
<feColorMatrix in="SourceAlpha" type="matrix" values="0 0 0 0 0 0 0 0 0 0 0 0 0 0 0 0 0 0 127 0" result="hardAlpha"/>
<feOffset dy="4"/>
<feGaussianBlur stdDeviation="4.15"/>
<feComposite in2="hardAlpha" operator="out"/>
<feColorMatrix type="matrix" values="0 0 0 0 0 0 0 0 0 0 0 0 0 0 0 0 0 0 0.25 0"/>
<feBlend mode="normal" in2="BackgroundImageFix" result="effect1_dropShadow_11_14"/>
<feBlend mode="normal" in="SourceGraphic" in2="effect1_dropShadow_11_14" result="shape"/>
</filter>
<filter id="filter6_d_11_14" x="206.086" y="529.188" width="183.847" height="146.8" filterUnits="userSpaceOnUse" color-interpolation-filters="sRGB">
<feFlood flood-opacity="0" result="BackgroundImageFix"/>
<feColorMatrix in="SourceAlpha" type="matrix" values="0 0 0 0 0 0 0 0 0 0 0 0 0 0 0 0 0 0 127 0" result="hardAlpha"/>
<feOffset dy="4"/>
<feGaussianBlur stdDeviation="22.75"/>
<feComposite in2="hardAlpha" operator="out"/>
<feColorMatrix type="matrix" values="0 0 0 0 0 0 0 0 0 0 0 0 0 0 0 0 0 0 0.25 0"/>
<feBlend mode="normal" in2="BackgroundImageFix" result="effect1_dropShadow_11_14"/>
<feBlend mode="normal" in="SourceGraphic" in2="effect1_dropShadow_11_14" result="shape"/>
</filter>
<linearGradient id="paint0_linear_11_14" x1="1911.85" y1="349" x2="1913.36" y2="403" gradientUnits="userSpaceOnUse">
<stop stop-color="#38B7FF"/>
<stop offset="0.681848" stop-color="#207CD3"/>
<stop offset="1" stop-color="#0D50B1"/>
</linearGradient>
<linearGradient id="paint1_linear_11_14" x1="2081.08" y1="635.68" x2="1738.14" y2="635.68" gradientUnits="userSpaceOnUse">
<stop stop-color="#38B7FF"/>
<stop offset="1" stop-color="#0D50B1"/>
</linearGradient>
<linearGradient id="paint2_linear_11_14" x1="2337.06" y1="353.8" x2="2224.98" y2="353.8" gradientUnits="userSpaceOnUse">
<stop stop-color="#38B7FF"/>
<stop offset="1" stop-color="#0D50B1"/>
</linearGradient>
<linearGradient id="paint3_linear_11_14" x1="999" y1="201" x2="126" y2="201" gradientUnits="userSpaceOnUse">
<stop stop-color="#38B7FF"/>
<stop offset="1" stop-color="#1B61CB"/>
</linearGradient>
<clipPath id="clip0_11_14">
<rect width="2431" height="890" rx="91" fill="white"/>
</clipPath>
</defs>
</svg>
