<?xml version="1.0" encoding="UTF-8" standalone="no"?><!DOCTYPE svg PUBLIC "-//W3C//DTD SVG 1.1//EN" "http://www.w3.org/Graphics/SVG/1.1/DTD/svg11.dtd"><svg width="100%" height="100%" viewBox="0 0 540 540" version="1.1" xmlns="http://www.w3.org/2000/svg" xmlns:xlink="http://www.w3.org/1999/xlink" xml:space="preserve" xmlns:serif="http://www.serif.com/" style="fill-rule:evenodd;clip-rule:evenodd;stroke-linejoin:round;stroke-miterlimit:2;"><path d="M65.625,230.882c12.073,-0 21.875,-9.802 21.875,-21.875l0,-209.007c-48.293,-0 -87.5,39.207 -87.5,87.5l0,121.507c0,12.073 9.802,21.875 21.875,21.875l43.75,-0Z" style="fill:#2ebcfa;"/><path d="M0,87.5l209.007,0c12.073,0 21.875,-9.802 21.875,-21.875l-0,-43.75c-0,-12.073 -9.802,-21.875 -21.875,-21.875l-121.507,0c-48.293,0 -87.5,39.207 -87.5,87.5Z" style="fill:#985184;"/><path d="M474.375,309.118c-12.073,0 -21.875,9.802 -21.875,21.875l-0,209.007c48.293,0 87.5,-39.207 87.5,-87.5l-0,-121.507c-0,-12.073 -9.802,-21.875 -21.875,-21.875l-43.75,0Z" style="fill:#2ebcfa;"/><path d="M540,452.5l-209.007,-0c-12.073,-0 -21.875,9.802 -21.875,21.875l0,43.75c0,12.073 9.802,21.875 21.875,21.875l121.507,0c48.293,0 87.5,-39.207 87.5,-87.5Z" style="fill:#985184;"/><path d="M540,452.5l-87.5,-0l-0,87.5c24.112,-0 45.96,-9.774 61.795,-25.576l0.065,-0.064l0.012,-0.012c15.83,-15.835 25.628,-37.707 25.628,-61.848Z" style="fill:#144494;"/><path d="M0,87.5l87.5,0l-0,-87.5c-24.112,0 -45.96,9.774 -61.795,25.576l-0.065,0.064l-0.012,0.012c-15.83,15.835 -25.628,37.707 -25.628,61.848Z" style="fill:#144494;"/><path d="M230.882,474.375c-0,-12.073 -9.802,-21.875 -21.875,-21.875l-187.132,-0c-12.073,-0 -21.875,9.802 -21.875,21.875l0,65.625l209.007,-0c12.073,-0 21.875,-9.802 21.875,-21.875l-0,-43.75Z" style="fill:#fbb945;"/><path d="M65.625,540c12.073,0 21.875,-9.802 21.875,-21.875l0,-187.132c0,-12.073 -9.802,-21.875 -21.875,-21.875l-43.75,0c-12.073,0 -21.875,9.802 -21.875,21.875l0,209.007l65.625,0Z" style="fill:#fc868b;"/><path d="M309.118,65.625c0,12.073 9.802,21.875 21.875,21.875l187.132,0c12.073,0 21.875,-9.802 21.875,-21.875l-0,-65.625l-209.007,0c-12.073,0 -21.875,9.802 -21.875,21.875l0,43.75Z" style="fill:#fbb945;"/><path d="M474.375,0c-12.073,0 -21.875,9.802 -21.875,21.875l-0,187.132c-0,12.073 9.802,21.875 21.875,21.875l43.75,-0c12.073,-0 21.875,-9.802 21.875,-21.875l-0,-209.007l-65.625,0Z" style="fill:#fc868b;"/><path d="M540,65.625l-0,-65.625l-65.625,0c-12.073,0 -21.875,9.802 -21.875,21.875l-0,65.625l65.625,0c12.073,0 21.875,-9.802 21.875,-21.875Z" style="fill:#f86126;"/><path d="M87.5,518.125l0,-65.625l-65.625,-0c-12.073,-0 -21.875,9.802 -21.875,21.875l0,65.625l65.625,-0c12.073,-0 21.875,-9.802 21.875,-21.875Z" style="fill:#f86126;"/></svg>