<?xml version="1.0" encoding="UTF-8" standalone="no"?>
<!-- Created with Inkscape (http://www.inkscape.org/) -->

<svg
   version="1.1"
   id="svg2"
   width="5669.2935"
   height="3401.5732"
   viewBox="0 0 5669.2935 3401.5732"
   xmlns="http://www.w3.org/2000/svg"
   xmlns:svg="http://www.w3.org/2000/svg">
  <defs
     id="defs6">
    <clipPath
       clipPathUnits="userSpaceOnUse"
       id="clipPath16">
      <path
         d="M 0,2551.181 H 4251.968 V 0 H 0 Z"
         id="path14" />
    </clipPath>
  </defs>
  <g
     id="g8"
     transform="matrix(1.3333333,0,0,-1.3333333,0,3401.5733)">
    <g
       id="g10">
      <g
         id="g12"
         clip-path="url(#clipPath16)">
        <g
           id="g18"
           transform="translate(2836.4854,1682.9049)">
          <path
             d="m 0,0 0.438,-373.975 -338.453,159.082 c -20.818,9.785 -30.081,34.289 -20.835,55.351 21.868,49.793 59.854,136.361 79.46,181.487 6.911,15.899 22.732,25.957 40.061,25.466 49.183,-1.394 143.692,-3.733 198.054,-5.061 C -18.278,41.789 -0.027,23.002 0,0"
             style="fill:#0994dc;fill-opacity:1;fill-rule:nonzero;stroke:none"
             id="path20" />
        </g>
        <g
           id="g22"
           transform="translate(3235.4263,1378.3754)">
          <path
             d="m 0,0 -338.452,159.083 0.437,-373.975 c 0.027,-23.003 18.28,-41.788 41.275,-42.351 54.363,-1.328 148.873,-3.667 198.055,-5.06 17.331,-0.492 33.149,9.566 40.062,25.466 19.604,45.125 57.591,131.694 79.458,181.486 C 30.082,-34.288 20.818,-9.785 0,0"
             style="fill:#66cef5;fill-opacity:1;fill-rule:nonzero;stroke:none"
             id="path24" />
        </g>
        <g
           id="g26"
           transform="translate(1933.1743,1195.469)">
          <path
             d="M 0,0 C -34.505,0 -62.476,27.971 -62.476,62.475 V 209.616 L -141.89,169.909 V 62.474 C -141.89,27.97 -169.861,0 -204.366,0 h -618.04 c -21.697,0 -39.286,17.589 -39.286,39.286 v 170.312 l -79.416,-39.709 V 62.475 c 0,-78.363 63.527,-141.889 141.89,-141.889 h 594.859 c 40.171,0 76.363,16.765 102.176,43.593 25.813,-26.828 62.008,-43.593 102.179,-43.593 H 736.001 V 0 Z"
             style="fill:#1d4e9e;fill-opacity:1;fill-rule:nonzero;stroke:none"
             id="path28" />
        </g>
        <g
           id="g30"
           transform="translate(1441.6316,1041.8656)">
          <path
             d="m 0,0 h -128.204 v -0.001 l 39.705,-79.413 H 0 c 15.693,0 28.412,-12.72 28.412,-28.411 v -113.193 h 79.415 v 113.19 C 107.827,-48.276 59.551,0 0,0"
             style="fill:#1d4e9e;fill-opacity:1;fill-rule:nonzero;stroke:none"
             id="path32" />
        </g>
        <g
           id="g34"
           transform="translate(2356.3057,1000.6391)">
          <path
             d="m 0,0 20.615,41.226 h -261.15 V 0 Z"
             style="fill:#1d4e9e;fill-opacity:1;fill-rule:nonzero;stroke:none"
             id="path36" />
        </g>
        <g
           id="g38"
           transform="translate(2156.9958,862.0741)">
          <path
             d="m 0,0 v 48.669 h 199.863 l 20.615,41.227 H -41.226 V -20.622 c 0,-11.379 9.226,-20.604 20.605,-20.604 H 221.125 V 0 Z"
             style="fill:#1d4e9e;fill-opacity:1;fill-rule:nonzero;stroke:none"
             id="path40" />
        </g>
        <g
           id="g42"
           transform="translate(2021.3176,950.1974)">
          <path
             d="m 0,0 h -124.249 c -13.909,0 -25.222,11.314 -25.222,25.221 0,13.907 11.313,25.221 25.222,25.221 H 36.704 l 20.611,41.226 -181.564,-0.001 c -36.636,0 -66.448,-29.805 -66.448,-66.446 0,-36.641 29.812,-66.446 66.448,-66.446 H 0 c 12.933,0 23.45,-10.521 23.45,-23.449 0,-12.928 -10.517,-23.449 -23.45,-23.449 h -170.082 l -20.615,-41.227 H 0 c 35.661,0 64.675,29.014 64.675,64.676 C 64.675,-29.014 35.661,0 0,0"
             style="fill:#1d4e9e;fill-opacity:1;fill-rule:nonzero;stroke:none"
             id="path44" />
        </g>
        <g
           id="g46"
           transform="translate(2668.7119,971.9919)">
          <path
             d="M 0,0 C -2.663,39.823 -37.568,69.873 -77.481,69.873 H -260.817 V 28.647 h 185.015 c 16.12,0 30.792,-10.895 34.027,-26.688 4.443,-21.712 -12.11,-40.877 -33.058,-40.877 h -165.373 c -11.381,0 -20.611,-9.229 -20.611,-20.613 v -91.613 h 0.329 l 40.896,20.449 v 50.551 H -74.833 C -31.775,-80.144 2.928,-43.674 0,0"
             style="fill:#1d4e9e;fill-opacity:1;fill-rule:nonzero;stroke:none"
             id="path48" />
        </g>
      </g>
    </g>
  </g>
</svg>
